<svg id="download-on-the-app-store-apple" xmlns="http://www.w3.org/2000/svg" width="331.63" height="98.262" viewBox="0 0 331.63 98.262">
  <path id="Path_3039" data-name="Path 3039" d="M330.807,88.035a9.412,9.412,0,0,1-9.423,9.411H13a9.425,9.425,0,0,1-9.436-9.411V12.984A9.437,9.437,0,0,1,13,3.561H321.382a9.422,9.422,0,0,1,9.423,9.423l0,75.051Z" transform="translate(-1.374 -1.374)" fill="#fff"/>
  <path id="Path_3041" data-name="Path 3041" d="M330.807,88.035a9.412,9.412,0,0,1-9.423,9.411H13a9.425,9.425,0,0,1-9.436-9.411V12.984A9.437,9.437,0,0,1,13,3.561H321.382a9.422,9.422,0,0,1,9.423,9.423l0,75.051Z" transform="translate(-1.374 -1.374)"/>
  <path id="Path_3042" data-name="Path 3042" d="M93.805,58.212c-.071-7.92,6.486-11.773,6.786-11.952A14.594,14.594,0,0,0,89.1,40.048c-4.835-.509-9.524,2.892-11.987,2.892-2.512,0-6.3-2.843-10.392-2.759A15.3,15.3,0,0,0,53.84,48.034c-5.57,9.64-1.416,23.806,3.92,31.6,2.669,3.819,5.788,8.077,9.871,7.927,3.994-.162,5.486-2.543,10.306-2.543,4.776,0,6.177,2.543,10.34,2.447,4.287-.066,6.985-3.833,9.561-7.684a31.5,31.5,0,0,0,4.373-8.9,13.781,13.781,0,0,1-8.406-12.665ZM85.94,34.922a14.018,14.018,0,0,0,3.21-10.048,14.287,14.287,0,0,0-9.237,4.777c-1.981,2.315-3.751,6.109-3.294,9.677,3.493.26,7.079-1.762,9.32-4.406Z" transform="translate(-19.754 -9.598)" fill="#fff"/>
  <g id="Group_1470" data-name="Group 1470" transform="translate(104.287 44.228)">
    <path id="Path_3044" data-name="Path 3044" d="M197.426,105.2h-5.582L188.786,95.6H178.159l-2.913,9.605h-5.434l10.532-32.7h6.5l10.579,32.7Zm-9.561-13.635L185.1,83.027q-.439-1.308-1.649-6.16h-.1q-.487,2.086-1.553,6.16l-2.718,8.539Zm36.593,1.555q0,6.015-3.269,9.507a9.586,9.586,0,0,1-7.27,3.106q-4.686,0-6.735-3.344v12.372h-5.24V89.371q0-3.778-.194-7.75h4.609l.292,3.737h.1a9.324,9.324,0,0,1,14.922-.926,13.037,13.037,0,0,1,2.787,8.689Zm-5.339.192a9.719,9.719,0,0,0-1.553-5.679A5.369,5.369,0,0,0,213,85.307a5.45,5.45,0,0,0-3.517,1.285,5.961,5.961,0,0,0-2.062,3.374,6.84,6.84,0,0,0-.243,1.595v3.934a6.307,6.307,0,0,0,1.578,4.344,5.239,5.239,0,0,0,4.1,1.772,5.371,5.371,0,0,0,4.608-2.28A10.034,10.034,0,0,0,219.119,93.313Zm32.466-.192q0,6.015-3.269,9.507a9.591,9.591,0,0,1-7.273,3.106q-4.686,0-6.734-3.344v12.372h-5.24V89.371q0-3.778-.194-7.75h4.609l.292,3.737h.1a9.326,9.326,0,0,1,14.924-.926,13.05,13.05,0,0,1,2.787,8.689Zm-5.341.192a9.72,9.72,0,0,0-1.556-5.679,5.361,5.361,0,0,0-4.557-2.327,5.473,5.473,0,0,0-3.522,1.285,5.957,5.957,0,0,0-2.06,3.374,7,7,0,0,0-.246,1.595v3.934a6.329,6.329,0,0,0,1.576,4.344,5.25,5.25,0,0,0,4.1,1.772,5.365,5.365,0,0,0,4.608-2.28A10.034,10.034,0,0,0,246.244,93.313Zm35.671,2.715a8.734,8.734,0,0,1-2.908,6.794q-3.193,2.86-8.91,2.863a15.555,15.555,0,0,1-8.47-2.037l1.212-4.366a14.581,14.581,0,0,0,7.57,2.039,7.144,7.144,0,0,0,4.608-1.334,4.358,4.358,0,0,0,1.654-3.563,4.566,4.566,0,0,0-1.362-3.349,12.624,12.624,0,0,0-4.513-2.521q-8.59-3.2-8.593-9.367a8.269,8.269,0,0,1,3.033-6.6,12,12,0,0,1,8.032-2.573,15.876,15.876,0,0,1,7.425,1.553l-1.315,4.271a12.985,12.985,0,0,0-6.285-1.5,6.392,6.392,0,0,0-4.336,1.359,3.888,3.888,0,0,0-1.315,2.963,4,4,0,0,0,1.507,3.2,16.975,16.975,0,0,0,4.754,2.521,16.116,16.116,0,0,1,6.211,3.976A8.285,8.285,0,0,1,281.915,96.028Zm17.37-10.475h-5.776V97q0,4.368,3.058,4.364a9.208,9.208,0,0,0,2.328-.243l.145,3.978a11.876,11.876,0,0,1-4.075.58,6.281,6.281,0,0,1-4.854-1.895q-1.744-1.895-1.748-6.357V85.543h-3.441V81.611h3.441V77.294l5.147-1.553v5.87h5.776v3.941Zm26.009,7.664a12.933,12.933,0,0,1-3.107,8.927,11.075,11.075,0,0,1-8.637,3.59,10.558,10.558,0,0,1-8.276-3.44,12.541,12.541,0,0,1-3.082-8.684,12.828,12.828,0,0,1,3.178-8.974,11.018,11.018,0,0,1,8.568-3.494,10.779,10.779,0,0,1,8.344,3.445A12.377,12.377,0,0,1,325.294,93.217Zm-5.432.12a10.556,10.556,0,0,0-1.4-5.563,5.187,5.187,0,0,0-4.709-2.809,5.262,5.262,0,0,0-4.805,2.809,10.731,10.731,0,0,0-1.406,5.661A10.525,10.525,0,0,0,308.944,99a5.375,5.375,0,0,0,9.47-.047A10.6,10.6,0,0,0,319.862,93.337Zm22.472-7.109a9.122,9.122,0,0,0-1.652-.145,4.946,4.946,0,0,0-4.272,2.089,7.865,7.865,0,0,0-1.307,4.656V105.2h-5.24V89.047q.007-3.713-.152-7.423h4.564l.192,4.511h.145a8.088,8.088,0,0,1,2.62-3.737,6.337,6.337,0,0,1,3.788-1.263,8.414,8.414,0,0,1,1.31.1ZM365.77,92.3a12.29,12.29,0,0,1-.192,2.376H349.858a6.837,6.837,0,0,0,2.281,5.342,7.8,7.8,0,0,0,5.142,1.646,17.391,17.391,0,0,0,6.361-1.113l.821,3.634a19.67,19.67,0,0,1-7.907,1.457q-5.486,0-8.617-3.224a11.918,11.918,0,0,1-3.129-8.659,13.5,13.5,0,0,1,2.915-8.875,10.044,10.044,0,0,1,8.246-3.782,8.79,8.79,0,0,1,7.72,3.782A12.724,12.724,0,0,1,365.77,92.3Zm-5-1.359a7.091,7.091,0,0,0-1.018-4.027,4.576,4.576,0,0,0-4.174-2.187,4.968,4.968,0,0,0-4.171,2.135,7.825,7.825,0,0,0-1.551,4.074Z" transform="translate(-169.812 -72.016)" fill="#fff"/>
  </g>
  <g id="Group_1471" data-name="Group 1471" transform="translate(107.355 16.102)">
    <path id="Path_3045" data-name="Path 3045" d="M178.574,43.267a33.47,33.47,0,0,1-3.768-.192V27.266a28.533,28.533,0,0,1,4.436-.334c6.009,0,8.777,2.956,8.777,7.775C188.02,40.265,184.751,43.267,178.574,43.267Zm.88-14.308a10.515,10.515,0,0,0-2.074.167V41.144a13.6,13.6,0,0,0,1.74.071c3.938,0,6.179-2.241,6.179-6.438C185.3,31.035,183.271,28.959,179.454,28.959Zm17.19,14.429c-3.387,0-5.582-2.528-5.582-5.961,0-3.578,2.242-6.128,5.774-6.128,3.338,0,5.582,2.408,5.582,5.939C202.418,40.859,200.105,43.388,196.644,43.388Zm.1-10.207c-1.861,0-3.053,1.74-3.053,4.172,0,2.386,1.217,4.126,3.028,4.126s3.028-1.86,3.028-4.175C199.746,34.945,198.554,33.181,196.743,33.181Zm24.989-1.644-3.625,11.588h-2.362l-1.5-5.032a38.14,38.14,0,0,1-.932-3.742h-.049a25.084,25.084,0,0,1-.929,3.742l-1.6,5.032h-2.387l-3.412-11.588h2.647l1.312,5.509q.465,1.968.787,3.72h.049c.189-.976.5-2.194.954-3.7l1.647-5.531h2.1l1.576,5.413c.381,1.312.691,2.6.932,3.816h.069a33.354,33.354,0,0,1,.786-3.816l1.408-5.413,2.529,0Zm13.346,11.588H232.5V36.471c0-2.049-.786-3.076-2.337-3.076a2.675,2.675,0,0,0-2.576,2.838v6.893h-2.576V34.849c0-1.025-.025-2.123-.1-3.315h2.266l.12,1.789h.071A4.164,4.164,0,0,1,231.05,31.3c2.433,0,4.031,1.86,4.031,4.887l0,6.939Zm7.1,0H239.6V26.219h2.578Zm9.392.263c-3.384,0-5.582-2.528-5.582-5.961,0-3.578,2.242-6.128,5.771-6.128,3.34,0,5.582,2.408,5.582,5.939C257.346,40.859,255.031,43.388,251.573,43.388Zm.1-10.207c-1.861,0-3.053,1.74-3.053,4.172,0,2.386,1.219,4.126,3.026,4.126s3.028-1.86,3.028-4.175c0-2.359-1.187-4.123-3-4.123ZM267.5,43.125l-.187-1.334h-.069a3.958,3.958,0,0,1-3.389,1.6,3.37,3.37,0,0,1-3.552-3.411c0-2.86,2.48-4.339,6.774-4.339v-.214c0-1.526-.809-2.29-2.406-2.29a5.425,5.425,0,0,0-3.028.86l-.523-1.693a7.41,7.41,0,0,1,3.979-1c3.028,0,4.557,1.6,4.557,4.794v4.268a17.5,17.5,0,0,0,.167,2.767l-2.323,0Zm-.354-5.772c-2.861,0-4.3.693-4.3,2.337a1.642,1.642,0,0,0,1.767,1.811,2.466,2.466,0,0,0,2.529-2.359Zm15.018,5.772-.12-1.86h-.071a3.886,3.886,0,0,1-3.721,2.123c-2.795,0-4.864-2.457-4.864-5.915,0-3.624,2.146-6.177,5.076-6.177a3.483,3.483,0,0,1,3.269,1.575h.052V26.219h2.578V40c0,1.12.027,2.17.1,3.123h-2.293Zm-.381-6.819a2.8,2.8,0,0,0-2.714-3.005c-1.91,0-3.077,1.693-3.077,4.077,0,2.337,1.212,3.936,3.026,3.936a2.892,2.892,0,0,0,2.765-3.076V36.306Zm18.926,7.082c-3.384,0-5.579-2.528-5.579-5.961,0-3.578,2.242-6.128,5.771-6.128,3.34,0,5.582,2.408,5.582,5.939C306.484,40.859,304.171,43.388,300.708,43.388Zm.1-10.207c-1.858,0-3.05,1.74-3.05,4.172,0,2.386,1.217,4.126,3.026,4.126s3.028-1.86,3.028-4.175c0-2.359-1.187-4.123-3-4.123Zm19.53,9.944h-2.578V36.471c0-2.049-.786-3.076-2.337-3.076a2.673,2.673,0,0,0-2.573,2.838v6.893h-2.578V34.849c0-1.025-.025-2.123-.1-3.315h2.266l.12,1.789h.071A4.162,4.162,0,0,1,316.3,31.3c2.433,0,4.033,1.86,4.033,4.887Zm17.331-9.657h-2.834V39.1c0,1.433.5,2.148,1.5,2.148a5.075,5.075,0,0,0,1.143-.12l.071,1.956a5.707,5.707,0,0,1-2,.287c-2.03,0-3.244-1.12-3.244-4.054V33.468h-1.691V31.537H332.3V29.414l2.529-.764v2.885h2.834ZM351.3,43.125h-2.573V36.52c0-2.074-.784-3.123-2.337-3.123a2.526,2.526,0,0,0-2.578,2.742v6.986h-2.573V26.219h2.573v6.961h.052a3.908,3.908,0,0,1,3.485-1.885c2.453,0,3.952,1.907,3.952,4.937v6.893Zm13.971-5.175h-7.73a3.326,3.326,0,0,0,3.652,3.433,8.706,8.706,0,0,0,3.124-.548l.4,1.789a9.678,9.678,0,0,1-3.888.715c-3.625,0-5.771-2.29-5.771-5.841s2.2-6.224,5.481-6.224c2.962,0,4.82,2.194,4.82,5.509a4.965,4.965,0,0,1-.088,1.167Zm-2.362-1.836c0-1.789-.9-3.052-2.549-3.052a3.055,3.055,0,0,0-2.817,3.052h5.366Z" transform="translate(-174.806 -26.219)" fill="#fff"/>
  </g>
</svg>
