<svg xmlns="http://www.w3.org/2000/svg" width="1665.498" height="462.119" viewBox="0 0 1665.498 462.119">
  <g id="Group_3120" data-name="Group 3120" transform="translate(-168.94 -6666.652)">
    <g id="Group_3103" data-name="Group 3103" transform="matrix(-0.966, 0.259, -0.259, -0.966, 508.535, 6767.907)">
      <path id="Path_158" data-name="Path 158" d="M384.332,283.668c-3.041-3.225-6.4-5.7-7.921-10.016-3.036-8.6,2.77-12.863,9.582-16.057,6.94-3.26,12.542-7.058,14.606-14.9,3.215-12.255-7.211-27.372-20.549-23.733-4.323,1.181-3.035,6.685-.082,8.386,4.129,2.387,9.654,3.746,10.349,9.429.93,7.6-6.562,9.776-11.8,12.516-5.657,2.959-9.935,7.472-11.734,13.7-3.1,10.722,3.312,25.282,15.837,24.668,1.763-.087,3-2.637,1.717-3.991Z" transform="translate(-366.005 -218.407)" fill="#afa9ed"/>
    </g>
    <g id="Group_3098" data-name="Group 3098" transform="translate(168.94 6877.56) rotate(-80)">
      <path id="Path_276" data-name="Path 276" d="M580.674,307.947c-4.687-24.368-10.773-49.664-19.647-72.848-3.258-8.522-15.144-4.1-13.174,4.493,5.44,23.728,14.216,47.763,23.711,70.15,1.909,4.493,10.168,3.723,9.109-1.8Z" transform="translate(-547.634 -230.509)" fill="#fff6d5"/>
    </g>
    <g id="Group_3097" data-name="Group 3097" transform="matrix(-0.966, 0.259, -0.259, -0.966, 456.649, 7058.754)">
      <path id="Path_274" data-name="Path 274" d="M633.556,225.676c3.479,12.925,7.314,25.7,11.294,38.473.954,3.074,3.865,4.041,6.5,2.247,10.388-7.055,20.777-13.994,30.609-21.8a3.7,3.7,0,0,0-.393-5.81c-11.517-7.906-27.076-19.581-41.692-19.659-3.714-.024-6.312,5.212-2.543,7.387,5.895,3.4,12.967,4.614,19.267,7.23a105.615,105.615,0,0,1,20.891,11.155c.145-2.12.284-4.24.429-6.36-10.992,6.77-21.344,14.356-31.8,21.918l6.173,1.238c-4.457-12.617-9.042-25.15-13.988-37.586-1.039-2.621-5.5-1.184-4.753,1.57Z" transform="translate(-633.473 -219.123)" fill="#ffe5e6"/>
    </g>
    <g id="Group_3099" data-name="Group 3099" transform="matrix(-0.966, 0.259, -0.259, -0.966, 1311.411, 6759.289)">
      <path id="Path_275" data-name="Path 275" d="M648.488,256.643c13.779-6.6,27.887-14.189,40.306-23.1,4.562-3.274.07-9.659-4.741-7.14-13.277,6.957-26.215,15.941-38.057,25.1-2.378,1.839-.631,6.639,2.492,5.145Z" transform="translate(-644.89 -225.826)" fill="#ffe5e6"/>
    </g>
    <g id="Group_3101" data-name="Group 3101" transform="matrix(-0.966, 0.259, -0.259, -0.966, 1834.438, 6693.574)">
      <path id="Path_277" data-name="Path 277" d="M580.482,219.015l-1.184-1.06c-5.25-4.637-13.845-5.548-18.945,0-5.15,5.614-4.96,13.323,0,18.937l1.06,1.192c4.687,5.3,14.35,5.142,19.07,0,4.7-5.109,5.647-14.085,0-19.069Z" transform="translate(-556.561 -214.128)" fill="#f9d9ff"/>
    </g>
    <g id="Group_3102" data-name="Group 3102" transform="matrix(-0.966, 0.259, -0.259, -0.966, 1364.438, 7121.574)">
      <path id="Path_277-2" data-name="Path 277" d="M580.482,219.015l-1.184-1.06c-5.25-4.637-13.845-5.548-18.945,0-5.15,5.614-4.96,13.323,0,18.937l1.06,1.192c4.687,5.3,14.35,5.142,19.07,0,4.7-5.109,5.647-14.085,0-19.069Z" transform="translate(-556.561 -214.128)" fill="#4dcfe0"/>
    </g>
    <g id="Group_3100" data-name="Group 3100" transform="matrix(-0.966, 0.259, -0.259, -0.966, 1720.555, 6867.336)">
      <path id="Path_273" data-name="Path 273" d="M596.8,223.736c-8.874,8.518-12.244,21.778-3.788,32.013,7.965,9.63,23.376,11.674,33.328,4C650.35,241.207,625.32,207,599.4,214.083c-4.8,1.31-3.6,8.151,1.134,8.422,7.581.429,15.693.723,21.744,6.029,6.5,5.707,6.644,15.354,1.309,21.914-14.124,17.37-38.662-8.208-23.822-23.737a2.1,2.1,0,0,0-2.974-2.975Z" transform="translate(-588.132 -213.133)" fill="#8aa9fc"/>
    </g>
  </g>
</svg>
