<svg id="Device" xmlns="http://www.w3.org/2000/svg" xmlns:xlink="http://www.w3.org/1999/xlink" width="620" height="1240" viewBox="0 0 620 1240">
  <defs>
    <radialGradient id="radial-gradient" cx="0.5" cy="0" r="1" gradientUnits="objectBoundingBox">
      <stop offset="0" stop-color="#2a4893"/>
      <stop offset="1" stop-color="#213054"/>
    </radialGradient>
    <filter id="Mask" x="365.042" y="38.525" width="21.575" height="21.575" filterUnits="userSpaceOnUse">
      <feOffset input="SourceAlpha"/>
      <feGaussianBlur stdDeviation="2" result="blur"/>
      <feFlood flood-opacity="0.4"/>
      <feComposite operator="in" in2="blur"/>
      <feComposite in="SourceGraphic"/>
    </filter>
    <linearGradient id="linear-gradient" x1="0.5" x2="0.5" y2="1" gradientUnits="objectBoundingBox">
      <stop offset="0" stop-color="#c9c6c8"/>
      <stop offset="0.017" stop-color="#716d6d"/>
      <stop offset="0.078" stop-color="#c9c6c8"/>
      <stop offset="0.921" stop-color="#c9c6c8"/>
      <stop offset="0.98" stop-color="#716d6d"/>
      <stop offset="1" stop-color="#c9c6c8"/>
    </linearGradient>
    <linearGradient id="linear-gradient-2" x1="0.5" x2="0.5" y2="0.064" gradientUnits="objectBoundingBox">
      <stop offset="0" stop-opacity="0.902"/>
      <stop offset="1" stop-opacity="0"/>
    </linearGradient>
    <linearGradient id="linear-gradient-3" y1="1" y2="0.929" xlink:href="#linear-gradient-2"/>
    <linearGradient id="linear-gradient-4" x1="0.5" x2="0.5" y2="0.064" gradientUnits="objectBoundingBox">
      <stop offset="0" stop-opacity="0.502"/>
      <stop offset="1" stop-opacity="0"/>
    </linearGradient>
    <linearGradient id="linear-gradient-5" y1="1" y2="0.929" xlink:href="#linear-gradient-4"/>
    <linearGradient id="linear-gradient-6" x1="0.5" x2="0.5" y2="1" gradientUnits="objectBoundingBox">
      <stop offset="0" stop-color="#5f5f5f"/>
      <stop offset="0.01" stop-color="#222"/>
      <stop offset="1" stop-color="#252525"/>
    </linearGradient>
    <linearGradient id="linear-gradient-7" x1="0.5" x2="0.5" y2="1" gradientUnits="objectBoundingBox">
      <stop offset="0" stop-color="#6d6d6d"/>
      <stop offset="0.016"/>
      <stop offset="0.985"/>
      <stop offset="1" stop-color="#5c5c5c"/>
    </linearGradient>
    <radialGradient id="radial-gradient-2" cx="0.476" cy="0.99" r="0.29" gradientUnits="objectBoundingBox">
      <stop offset="0" stop-color="#fff" stop-opacity="0.153"/>
      <stop offset="1" stop-color="#fff" stop-opacity="0"/>
    </radialGradient>
    <linearGradient id="linear-gradient-8" x1="0.272" y1="0.45" x2="0.547" y2="0.45" gradientUnits="objectBoundingBox">
      <stop offset="0" stop-color="#a5a5a5"/>
      <stop offset="0.007" stop-color="#e2e2e2"/>
      <stop offset="0.995" stop-color="#bebebe"/>
      <stop offset="1" stop-color="#9d9d9d"/>
    </linearGradient>
    <linearGradient id="linear-gradient-11" x1="0.655" y1="0.45" x2="0.639" y2="0.45" gradientUnits="objectBoundingBox">
      <stop offset="0" stop-color="#8e8e8e"/>
      <stop offset="1" stop-color="#bcbcbc"/>
    </linearGradient>
    <linearGradient id="linear-gradient-12" x1="0.5" x2="0.5" y2="1" gradientUnits="objectBoundingBox">
      <stop offset="0" stop-opacity="0.996"/>
      <stop offset="0.095" stop-opacity="0"/>
      <stop offset="0.895" stop-opacity="0"/>
      <stop offset="1" stop-opacity="0.882"/>
    </linearGradient>
    <clipPath id="clip-path">
      <rect id="Mask-2" data-name="Mask" width="74.687" height="10.054" rx="5.027" fill="#1d1c1c"/>
    </clipPath>
    <clipPath id="clip-path-2">
      <rect id="Shadow" width="74.687" height="10.054" rx="5.027" fill="none" opacity="0.244"/>
    </clipPath>
    <radialGradient id="radial-gradient-3" cx="1.211" cy="1.341" r="1.007" gradientUnits="objectBoundingBox">
      <stop offset="0" stop-color="#434343"/>
      <stop offset="1" stop-color="#121212"/>
    </radialGradient>
    <filter id="Mask-3" x="365.042" y="38.525" width="21.575" height="21.575" filterUnits="userSpaceOnUse">
      <feOffset input="SourceAlpha"/>
      <feGaussianBlur stdDeviation="2" result="blur-2"/>
      <feFlood flood-opacity="0.4"/>
      <feComposite operator="in" in2="blur-2"/>
      <feComposite in="SourceGraphic"/>
    </filter>
    <clipPath id="clip-path-3">
      <g transform="matrix(1, 0, 0, 1, 0, 0)" filter="url(#Mask)">
        <circle id="Mask-4" data-name="Mask" cx="4.788" cy="4.788" r="4.788" opacity="0.388" fill="url(#radial-gradient)"/>
      </g>
    </clipPath>
  </defs>
  <g id="Body">
    <g id="Phone_Shape" data-name="Phone Shape" transform="translate(3.83)">
      <path id="Device_Shape" data-name="Device Shape" d="M108.68,0H503.66c75.928,0,108.68,37.539,108.68,108.68V1131.321c0,68.746-35.146,108.679-108.68,108.679H108.68C32.752,1240,0,1202.461,0,1131.321V108.68C0,37.539,32.752,0,108.68,0Z"/>
      <g id="Metal_Band" data-name="Metal Band" transform="translate(2.873 2.873)">
        <path id="Metal_Band-2" data-name="Metal Band" d="M105.807,0C33.267,0,0,34.393,0,105.807V1128.448c0,71.414,33.267,105.807,105.807,105.807H500.788c70.175,0,105.807-36.818,105.807-105.807V105.807C606.595,34.393,573.328,0,500.788,0Z" fill="#c9c6c8"/>
        <path id="Metal_Band-3" data-name="Metal Band" d="M105.807,0C33.267,0,0,34.393,0,105.807V1128.448c0,71.414,33.267,105.807,105.807,105.807H500.788c70.175,0,105.807-36.818,105.807-105.807V105.807C606.595,34.393,573.328,0,500.788,0Z" fill="url(#linear-gradient)"/>
      </g>
      <g id="Reflection" transform="translate(4.489 9.097)">
        <path id="Reflection-2" data-name="Reflection" d="M499.171,1221.807H104.191a223.829,223.829,0,0,1-22.358-1.055,152.977,152.977,0,0,1-19.6-3.2,107.2,107.2,0,0,1-16.884-5.411,80.319,80.319,0,0,1-14.216-7.676,66.905,66.905,0,0,1-20.62-22.375,80.3,80.3,0,0,1-6.5-14.815A107.248,107.248,0,0,1,0,1149.959a103,103,0,0,0,5.261,15.425,83.685,83.685,0,0,0,7.359,13.44,75.005,75.005,0,0,0,9.517,11.433,75.987,75.987,0,0,0,11.735,9.4,86.952,86.952,0,0,0,14.013,7.352,109.546,109.546,0,0,0,16.351,5.279,146.444,146.444,0,0,0,18.748,3.183,201.258,201.258,0,0,0,21.206,1.066h394.98a181.186,181.186,0,0,0,20.883-1.157,137.776,137.776,0,0,0,18.606-3.427,107.887,107.887,0,0,0,16.348-5.633,89.38,89.38,0,0,0,14.109-7.774,79.428,79.428,0,0,0,21.581-21.71,88.117,88.117,0,0,0,7.51-13.806,104.921,104.921,0,0,0,5.349-15.687,105.64,105.64,0,0,1-4.023,17.464,82.959,82.959,0,0,1-6.62,15.13,71.5,71.5,0,0,1-20.992,23.267,83.313,83.313,0,0,1-14.355,8.14,106.2,106.2,0,0,1-16.916,5.812,143.639,143.639,0,0,1-19.468,3.486A198.9,198.9,0,0,1,499.171,1221.807ZM602.951,69.348a100.666,100.666,0,0,0-5.38-15.069,82.634,82.634,0,0,0-7.434-13.129,74.758,74.758,0,0,0-9.546-11.168A76.31,76.31,0,0,0,568.878,20.8a87.64,87.64,0,0,0-13.942-7.181A110.39,110.39,0,0,0,538.71,8.459,147.19,147.19,0,0,0,520.141,5.35a201.6,201.6,0,0,0-20.969-1.041H104.191A201.632,201.632,0,0,0,83.221,5.35,147.189,147.189,0,0,0,64.652,8.46a110.385,110.385,0,0,0-16.227,5.157A87.685,87.685,0,0,0,34.483,20.8a76.336,76.336,0,0,0-11.715,9.186,74.778,74.778,0,0,0-9.546,11.169,82.648,82.648,0,0,0-7.434,13.13A100.794,100.794,0,0,0,.411,69.341,102.735,102.735,0,0,1,4.669,52.654a78.316,78.316,0,0,1,6.661-14.3,67.522,67.522,0,0,1,9.106-11.947,68.528,68.528,0,0,1,11.595-9.653A81.483,81.483,0,0,1,46.159,9.344,108.708,108.708,0,0,1,62.866,4.117a154.353,154.353,0,0,1,19.329-3.1C89.017.343,96.418,0,104.191,0h394.98c7.772,0,15.173.343,22,1.02a154.353,154.353,0,0,1,19.329,3.1A108.7,108.7,0,0,1,557.2,9.343a81.475,81.475,0,0,1,14.128,7.412,68.511,68.511,0,0,1,11.595,9.652,67.515,67.515,0,0,1,9.106,11.946,78.325,78.325,0,0,1,6.661,14.3,102.877,102.877,0,0,1,4.261,16.7Z" transform="translate(0 0)" fill="url(#linear-gradient-2)"/>
        <path id="Reflection-3" data-name="Reflection" d="M499.171,1221.807H104.191a223.829,223.829,0,0,1-22.358-1.055,152.977,152.977,0,0,1-19.6-3.2,107.2,107.2,0,0,1-16.884-5.411,80.319,80.319,0,0,1-14.216-7.676,66.905,66.905,0,0,1-20.62-22.375,80.3,80.3,0,0,1-6.5-14.815A107.248,107.248,0,0,1,0,1149.959a103,103,0,0,0,5.261,15.425,83.685,83.685,0,0,0,7.359,13.44,75.005,75.005,0,0,0,9.517,11.433,75.987,75.987,0,0,0,11.735,9.4,86.952,86.952,0,0,0,14.013,7.352,109.546,109.546,0,0,0,16.351,5.279,146.444,146.444,0,0,0,18.748,3.183,201.258,201.258,0,0,0,21.206,1.066h394.98a181.186,181.186,0,0,0,20.883-1.157,137.776,137.776,0,0,0,18.606-3.427,107.887,107.887,0,0,0,16.348-5.633,89.38,89.38,0,0,0,14.109-7.774,79.428,79.428,0,0,0,21.581-21.71,88.117,88.117,0,0,0,7.51-13.806,104.921,104.921,0,0,0,5.349-15.687,105.64,105.64,0,0,1-4.023,17.464,82.959,82.959,0,0,1-6.62,15.13,71.5,71.5,0,0,1-20.992,23.267,83.313,83.313,0,0,1-14.355,8.14,106.2,106.2,0,0,1-16.916,5.812,143.639,143.639,0,0,1-19.468,3.486A198.9,198.9,0,0,1,499.171,1221.807ZM602.951,69.348a100.666,100.666,0,0,0-5.38-15.069,82.634,82.634,0,0,0-7.434-13.129,74.758,74.758,0,0,0-9.546-11.168A76.31,76.31,0,0,0,568.878,20.8a87.64,87.64,0,0,0-13.942-7.181A110.39,110.39,0,0,0,538.71,8.459,147.19,147.19,0,0,0,520.141,5.35a201.6,201.6,0,0,0-20.969-1.041H104.191A201.632,201.632,0,0,0,83.221,5.35,147.189,147.189,0,0,0,64.652,8.46a110.385,110.385,0,0,0-16.227,5.157A87.685,87.685,0,0,0,34.483,20.8a76.336,76.336,0,0,0-11.715,9.186,74.778,74.778,0,0,0-9.546,11.169,82.648,82.648,0,0,0-7.434,13.13A100.794,100.794,0,0,0,.411,69.341,102.735,102.735,0,0,1,4.669,52.654a78.316,78.316,0,0,1,6.661-14.3,67.522,67.522,0,0,1,9.106-11.947,68.528,68.528,0,0,1,11.595-9.653A81.483,81.483,0,0,1,46.159,9.344,108.708,108.708,0,0,1,62.866,4.117a154.353,154.353,0,0,1,19.329-3.1C89.017.343,96.418,0,104.191,0h394.98c7.772,0,15.173.343,22,1.02a154.353,154.353,0,0,1,19.329,3.1A108.7,108.7,0,0,1,557.2,9.343a81.475,81.475,0,0,1,14.128,7.412,68.511,68.511,0,0,1,11.595,9.652,67.515,67.515,0,0,1,9.106,11.946,78.325,78.325,0,0,1,6.661,14.3,102.877,102.877,0,0,1,4.261,16.7Z" transform="translate(0 0)" fill="url(#linear-gradient-3)"/>
      </g>
      <g id="Reflection-4" data-name="Reflection" transform="translate(0 13.405)">
        <path id="Reflection-5" data-name="Reflection" d="M108.68,0H503.66c75.928,0,108.68,36.7,108.68,106.246v999.74c0,67.207-35.146,106.246-108.68,106.246H108.68c-75.928,0-108.68-36.7-108.68-106.246V106.246C0,36.7,32.752,0,108.68,0Z" fill="url(#linear-gradient-4)"/>
        <path id="Reflection-6" data-name="Reflection" d="M108.68,0H503.66c75.928,0,108.68,36.7,108.68,106.246v999.74c0,67.207-35.146,106.246-108.68,106.246H108.68c-75.928,0-108.68-36.7-108.68-106.246V106.246C0,36.7,32.752,0,108.68,0Z" fill="url(#linear-gradient-5)"/>
      </g>
      <g id="Glass" transform="translate(9.097 9.097)" stroke-miterlimit="10" fill="url(#linear-gradient-6)">
        <path d="M 494.5636596679688 1220.607055664063 L 99.58305358886719 1220.607055664063 C 91.06736755371094 1220.607055664063 83.04782867431641 1220.114990234375 75.74736785888672 1219.144775390625 C 68.42090606689453 1218.1708984375 61.5810546875 1216.683837890625 55.4179801940918 1214.724609375 C 49.24982452392578 1212.763793945313 43.55967330932617 1210.266723632813 38.50567245483398 1207.302734375 C 33.45505523681641 1204.340576171875 28.87428665161133 1200.815063476563 24.89090347290039 1196.823974609375 C 20.90921020507813 1192.834594726563 17.39290237426758 1188.24853515625 14.43936443328857 1183.192993164063 C 11.48659515380859 1178.139038085938 8.999671936035156 1172.450073242188 7.047671794891357 1166.284790039063 C 5.099056720733643 1160.13037109375 3.620133399963379 1153.301635742188 2.652133464813232 1145.988403320313 C 1.688595056533813 1138.708618164063 1.199979662895203 1130.713012695313 1.199979662895203 1122.223999023438 L 1.199979662895203 99.58303833007813 C 1.199979662895203 91.09396362304688 1.688595056533813 83.09842681884766 2.652133464813232 75.81858062744141 C 3.620133399963379 68.50534820556641 5.099056720733643 61.67657852172852 7.047671794891357 55.52227401733398 C 8.999671936035156 49.35688781738281 11.48659515380859 43.66796493530273 14.43936443328857 38.61396408081055 C 17.39290237426758 33.55842590332031 20.90921020507813 28.97242736816406 24.89090347290039 24.98304176330566 C 28.87428665161133 20.99196434020996 33.45505523681641 17.46642684936523 38.50567245483398 14.5042724609375 C 43.55967330932617 11.54027271270752 49.24982452392578 9.043195724487305 55.4179801940918 7.08242654800415 C 61.5810546875 5.123195648193359 68.42090606689453 3.63611888885498 75.74736785888672 2.662272691726685 C 83.04782867431641 1.691964983940125 91.06736755371094 1.199965000152588 99.58305358886719 1.199965000152588 L 494.5636596679688 1.199965000152588 C 503.0793762207031 1.199965000152588 511.0989074707031 1.691964983940125 518.3993530273438 2.662272691726685 C 525.725830078125 3.63611888885498 532.565673828125 5.123195648193359 538.728759765625 7.08242654800415 C 544.8969116210938 9.043195724487305 550.5870361328125 11.54027271270752 555.6410522460938 14.5042724609375 C 560.691650390625 17.46642684936523 565.2724609375 20.99196434020996 569.2557983398438 24.98304176330566 C 573.2374877929688 28.97242736816406 576.7538452148438 33.55842590332031 579.7073364257813 38.61396408081055 C 582.66015625 43.66796493530273 585.1470336914063 49.35688781738281 587.0990600585938 55.52227401733398 C 589.0476684570313 61.67657852172852 590.526611328125 68.50534820556641 591.4945678710938 75.81858062744141 C 592.4581298828125 83.09842681884766 592.94677734375 91.09396362304688 592.94677734375 99.58303833007813 L 592.94677734375 1122.223999023438 C 592.94677734375 1130.378784179688 592.4259643554688 1138.137084960938 591.3987426757813 1145.283447265625 C 590.3738403320313 1152.413940429688 588.8167724609375 1159.131713867188 586.7704467773438 1165.25 C 584.728759765625 1171.354248046875 582.1436767578125 1177.03076171875 579.0870361328125 1182.121948242188 C 576.0347290039063 1187.205810546875 572.4267578125 1191.848388671875 568.3632202148438 1195.920532226563 C 564.29736328125 1199.994750976563 559.660888671875 1203.613037109375 554.5825805664063 1206.674926757813 C 549.4913940429688 1209.744262695313 543.8133544921875 1212.340698242188 537.7059936523438 1214.391845703125 C 531.578125 1216.449951171875 524.84814453125 1218.016479492188 517.7025756835938 1219.047607421875 C 510.5336608886719 1220.082397460938 502.7485961914063 1220.607055664063 494.5636596679688 1220.607055664063 Z" stroke="none"/>
        <path d="M 99.58306884765625 2.4000244140625 C 91.11996459960938 2.4000244140625 83.1536865234375 2.888427734375 75.905517578125 3.851806640625 C 68.6484375 4.81640625 61.8778076171875 6.2880859375 55.781494140625 8.2259521484375 C 49.6981201171875 10.1597900390625 44.0899658203125 12.6204833984375 39.11273193359375 15.53955078125 C 34.15045166015625 18.4498291015625 29.65118408203125 21.9122314453125 25.74029541015625 25.8309326171875 C 21.8309326171875 29.7476806640625 18.37738037109375 34.2520751953125 15.47552490234375 39.21923828125 C 12.5675048828125 44.19677734375 10.11688232421875 49.8037109375 8.191650390625 55.8843994140625 C 6.26416015625 61.9722900390625 4.80059814453125 68.73193359375 3.841796875 75.97607421875 C 2.88507080078125 83.203857421875 2.39996337890625 91.146484375 2.39996337890625 99.5830078125 L 2.39996337890625 1122.223754882813 C 2.39996337890625 1130.660400390625 2.88507080078125 1138.60302734375 3.841796875 1145.830932617188 C 4.80059814453125 1153.074951171875 6.26416015625 1159.834716796875 8.191650390625 1165.922485351563 C 10.11688232421875 1172.003173828125 12.5675048828125 1177.610229492188 15.47552490234375 1182.587768554688 C 18.37738037109375 1187.554931640625 21.8309326171875 1192.059326171875 25.74029541015625 1195.97607421875 C 29.65118408203125 1199.894775390625 34.15045166015625 1203.357177734375 39.11273193359375 1206.267456054688 C 44.0899658203125 1209.1865234375 49.6981201171875 1211.647216796875 55.781494140625 1213.5810546875 C 61.8778076171875 1215.518920898438 68.6484375 1216.990600585938 75.905517578125 1217.955200195313 C 83.1536865234375 1218.918579101563 91.11996459960938 1219.406982421875 99.58306884765625 1219.406982421875 L 494.5636596679688 1219.406982421875 C 502.6915283203125 1219.406982421875 510.4188842773438 1218.886596679688 517.5311889648438 1217.859985351563 C 524.605224609375 1216.838989257813 531.2644653320313 1215.28955078125 537.323974609375 1213.254272460938 C 543.3484497070313 1211.230834960938 548.9465942382813 1208.671508789063 553.962890625 1205.647216796875 C 558.9578247070313 1202.635864257813 563.5169067382813 1199.078125 567.513671875 1195.072875976563 C 571.5084228515625 1191.069702148438 575.05615234375 1186.504638671875 578.0582885742188 1181.504272460938 C 581.0700073242188 1176.48779296875 583.6182861328125 1170.890869140625 585.6322631835938 1164.869140625 C 587.6558227539063 1158.819091796875 589.1962890625 1152.171997070313 590.2108764648438 1145.112548828125 C 591.22998046875 1138.022583007813 591.7467651367188 1130.321655273438 591.7467651367188 1122.223754882813 L 591.7467651367188 99.5830078125 C 591.7467651367188 91.146484375 591.2616577148438 83.203857421875 590.304931640625 75.97607421875 C 589.3461303710938 68.73193359375 587.882568359375 61.9722900390625 585.955078125 55.8843994140625 C 584.0298461914063 49.8037109375 581.5792236328125 44.19677734375 578.6712036132813 39.21923828125 C 575.7693481445313 34.2520751953125 572.3157958984375 29.7476806640625 568.4064331054688 25.8309326171875 C 564.4955444335938 21.9122314453125 559.9962768554688 18.4498291015625 555.0339965820313 15.53955078125 C 550.0567626953125 12.6204833984375 544.4486083984375 10.1597900390625 538.365234375 8.2259521484375 C 532.2689208984375 6.2880859375 525.498291015625 4.81640625 518.2412109375 3.851806640625 C 510.9930419921875 2.888427734375 503.0267333984375 2.4000244140625 494.5636596679688 2.4000244140625 L 99.58306884765625 2.4000244140625 M 99.58306884765625 0 L 494.5636596679688 0 C 563.2302856445313 0 594.146728515625 31.166748046875 594.146728515625 99.5830078125 L 594.146728515625 1122.223754882813 C 594.146728515625 1188.231079101563 560.8499755859375 1221.807006835938 494.5636596679688 1221.807006835938 L 99.58306884765625 1221.807006835938 C 30.91644287109375 1221.807006835938 0 1190.640258789063 0 1122.223754882813 L 0 99.5830078125 C 0 31.166748046875 30.91644287109375 0 99.58306884765625 0 Z" stroke="none"/>
      </g>
      <g id="Glass-2" data-name="Glass" transform="translate(15.32 14.842)">
        <path id="Glass-3" data-name="Glass" d="M93.359,0H488.34C553.471,0,581.7,28.282,581.7,93.359V1116c0,62.677-30.617,93.359-93.359,93.359H93.359C28.228,1209.359,0,1181.077,0,1116V93.359C0,28.282,28.228,0,93.359,0Z" transform="translate(0 0)" fill="url(#linear-gradient-7)"/>
        <path id="Glass-4" data-name="Glass" d="M93.359,0H488.34C553.471,0,581.7,28.282,581.7,93.359V1116c0,62.677-30.617,93.359-93.359,93.359H93.359C28.228,1209.359,0,1181.077,0,1116V93.359C0,28.282,28.228,0,93.359,0Z" transform="translate(0 0)" fill="url(#radial-gradient-2)"/>
      </g>
      <path id="Glass-5" data-name="Glass" d="M83.784,0C23.963,0,0,23.973,0,83.784V1106.425c0,59.81,23.963,83.784,83.784,83.784H478.764c57.428,0,83.784-26.369,83.784-83.784V83.784C562.548,23.973,538.586,0,478.764,0Z" transform="translate(24.896 24.417)"/>
    </g>
    <g id="Plug" transform="translate(274.332 1238.085)">
      <path id="Plug-2" data-name="Plug" d="M9.575,0H62.239c7.181,0,9.575,1.915,9.575,1.915H0S2.394,0,9.575,0Z" fill="#343434"/>
    </g>
    <g id="Glass_Glare" data-name="Glass Glare" transform="translate(19.151 23.294)">
      <g id="Glare" transform="translate(0 0)">
        <path id="Glare-2" data-name="Glare" d="M-28.894,0C-58.549,12.692-71.956,40.083-71.956,84.964V1108.287c0,42.206,13.865,69.914,42.054,83.523,0-1.514-31.522-22.463-31.522-78.732v-1033C-61.424,20.724-28.894,0-28.894,0Z" transform="translate(71.956 0)" fill="none"/>
        <path id="Glare-3" data-name="Glare" d="M-28.894,0C-58.549,12.692-71.956,40.083-71.956,84.964V1108.287c0,42.206,13.865,69.914,42.054,83.523,0-1.514-31.522-22.463-31.522-78.732v-1033C-61.424,20.724-28.894,0-28.894,0Z" transform="translate(71.956 0)" fill="none"/>
        <path id="Glare-4" data-name="Glare" d="M-28.894,0C-58.549,12.692-71.956,40.083-71.956,84.964V1108.287c0,42.206,13.865,69.914,42.054,83.523,0-1.514-31.522-22.463-31.522-78.732v-1033C-61.424,20.724-28.894,0-28.894,0Z" transform="translate(71.956 0)" fill="rgba(255,255,255,0.6)"/>
      </g>
      <g id="Glare-5" data-name="Glare" transform="translate(538.634 0)">
        <path id="Glare-6" data-name="Glare" d="M0,0C29.655,12.692,43.063,40.083,43.063,84.964V1108.287c0,42.206-13.865,69.914-42.054,83.523,0-1.514,31.522-22.463,31.522-78.732v-1033C32.53,20.724,0,0,0,0Z" transform="translate(0 0)" fill="none"/>
        <path id="Glare-7" data-name="Glare" d="M0,0C29.655,12.692,43.063,40.083,43.063,84.964V1108.287c0,42.206-13.865,69.914-42.054,83.523,0-1.514,31.522-22.463,31.522-78.732v-1033C32.53,20.724,0,0,0,0Z" transform="translate(0 0)" fill="none"/>
        <path id="Glare-8" data-name="Glare" d="M0,0C29.655,12.692,43.063,40.083,43.063,84.964V1108.287c0,42.206-13.865,69.914-42.054,83.523,0-1.514,31.522-22.463,31.522-78.732v-1033C32.53,20.724,0,0,0,0Z" transform="translate(0 0)" fill="rgba(255,255,255,0.6)"/>
      </g>
    </g>
    <g id="Antenna_Bands" data-name="Antenna Bands" transform="translate(3.83)">
      <rect id="Antenna_Band" data-name="Antenna Band" width="10.533" height="8.618" transform="translate(0 118.734)" opacity="0.603"/>
      <rect id="Antenna_Band-2" data-name="Antenna Band" width="10.533" height="8.618" transform="translate(601.807 118.734)" opacity="0.603"/>
      <rect id="Antenna_Band-3" data-name="Antenna Band" width="10.533" height="8.618" transform="translate(484.988 10.533) rotate(-90)" opacity="0.603"/>
      <rect id="Antenna_Band-4" data-name="Antenna Band" width="10.533" height="8.618" transform="translate(118.734 1240) rotate(-90)" opacity="0.603"/>
      <rect id="Antenna_Band-5" data-name="Antenna Band" width="10.533" height="8.618" transform="translate(0 1112.649)" opacity="0.603"/>
      <rect id="Antenna_Band-6" data-name="Antenna Band" width="10.533" height="8.618" transform="translate(601.807 1112.649)" opacity="0.603"/>
    </g>
    <g id="Buttons" transform="translate(0 167.568)">
      <path id="Mute" d="M3.342,0A3.347,3.347,0,0,0,0,3.351V44.525a3.347,3.347,0,0,0,3.342,3.351h1.91c0-2.518.032-45.415,0-47.876Z" fill="url(#linear-gradient-8)"/>
      <path id="Volume" d="M3.342,0A5.625,5.625,0,0,0,.257,1.926,2.747,2.747,0,0,0,0,2.944V87.026A7.916,7.916,0,0,0,.257,88.45C.82,89.832,1.8,90.166,3.342,90.965h1.91c0-2.518.032-88.5,0-90.965Z" transform="translate(0 87.614)" fill="url(#linear-gradient-8)"/>
      <path id="Volume-2" data-name="Volume" d="M3.342,0A5.625,5.625,0,0,0,.257,1.926,2.747,2.747,0,0,0,0,2.944V87.026A7.916,7.916,0,0,0,.257,88.45C.82,89.832,1.8,90.166,3.342,90.965h1.91c0-2.518.032-88.5,0-90.965Z" transform="translate(0 201.081)" fill="url(#linear-gradient-8)"/>
      <g id="Siri" transform="translate(614.734 117.297)">
        <path id="Siri-2" data-name="Siri" d="M-6.876,0A5.625,5.625,0,0,1-3.79,1.926a2.747,2.747,0,0,1,.257,1.018v137.7a7.916,7.916,0,0,1-.257,1.424c-.563,1.382-1.541,1.716-3.085,2.515h-1.91c0-2.518-.032-142.125,0-144.587Z" transform="translate(8.8)" fill="url(#linear-gradient-11)"/>
        <path id="Siri-3" data-name="Siri" d="M-6.876,0A5.625,5.625,0,0,1-3.79,1.926a2.747,2.747,0,0,1,.257,1.018v137.7a7.916,7.916,0,0,1-.257,1.424c-.563,1.382-1.541,1.716-3.085,2.515h-1.91c0-2.518-.032-142.125,0-144.587Z" transform="translate(8.8)" fill="url(#linear-gradient-12)"/>
      </g>
    </g>
  </g>
  <g id="Front" transform="translate(272.896 40.216)">
    <g id="Speaker" transform="translate(0 4.309)" opacity="0.801">
      <rect id="Mask-5" data-name="Mask" width="74.687" height="10.054" rx="5.027" fill="#1d1c1c"/>
      <g id="Speaker-2" data-name="Speaker" clip-path="url(#clip-path)">
        <path id="Grid" d="M0,8.891V8.207H74.687v.684ZM0,6.839V6.156H74.687v.683ZM0,4.788V4.1H74.687v.684ZM0,2.736V2.052H74.687v.683ZM0,.684V0H74.687V.684Z" fill="rgba(0,0,0,0.15)"/>
        <path id="Grid-2" data-name="Grid" d="M0,8.891V8.207H74.687v.684ZM0,6.839V6.156H74.687v.683ZM0,4.788V4.1H74.687v.684ZM0,2.736V2.052H74.687v.683ZM0,.684V0H74.687V.684Z" transform="translate(0 1.436)" fill="rgba(255,255,255,0.03)"/>
        <path id="Grid-3" data-name="Grid" d="M71.92,11.627V0h.8V11.627Zm-2.4,0V0h.8V11.627Zm-2.4,0V0h.8V11.627Zm-2.4,0V0h.8V11.627Zm-2.4,0V0h.8V11.627Zm-2.4,0V0h.8V11.627Zm-2.4,0V0h.8V11.627Zm-2.4,0V0h.8V11.627Zm-2.4,0V0h.8V11.627Zm-2.4,0V0h.8V11.627Zm-2.4,0V0h.8V11.627Zm-2.4,0V0h.8V11.627Zm-2.4,0V0h.8V11.627Zm-2.4,0V0h.8V11.627Zm-2.4,0V0h.8V11.627Zm-2.4,0V0h.8V11.627Zm-2.4,0V0h.8V11.627Zm-2.4,0V0h.8V11.627Zm-2.4,0V0h.8V11.627Zm-2.4,0V0h.8V11.627Zm-2.4,0V0h.8V11.627Zm-2.4,0V0h.8V11.627Zm-2.4,0V0h.8V11.627Zm-2.4,0V0h.8V11.627Zm-2.4,0V0h.8V11.627Zm-2.4,0V0h.8V11.627Zm-2.4,0V0h.8V11.627Zm-2.4,0V0h.8V11.627Zm-2.4,0V0h.8V11.627Zm-2.4,0V0h.8V11.627Zm-2.4,0V0H.8V11.627Z" transform="translate(0.799 -0.684)" fill="rgba(0,0,0,0.15)"/>
        <path id="Grid-4" data-name="Grid" d="M71.92,11.627V0h.8V11.627Zm-2.4,0V0h.8V11.627Zm-2.4,0V0h.8V11.627Zm-2.4,0V0h.8V11.627Zm-2.4,0V0h.8V11.627Zm-2.4,0V0h.8V11.627Zm-2.4,0V0h.8V11.627Zm-2.4,0V0h.8V11.627Zm-2.4,0V0h.8V11.627Zm-2.4,0V0h.8V11.627Zm-2.4,0V0h.8V11.627Zm-2.4,0V0h.8V11.627Zm-2.4,0V0h.8V11.627Zm-2.4,0V0h.8V11.627Zm-2.4,0V0h.8V11.627Zm-2.4,0V0h.8V11.627Zm-2.4,0V0h.8V11.627Zm-2.4,0V0h.8V11.627Zm-2.4,0V0h.8V11.627Zm-2.4,0V0h.8V11.627Zm-2.4,0V0h.8V11.627Zm-2.4,0V0h.8V11.627Zm-2.4,0V0h.8V11.627Zm-2.4,0V0h.8V11.627Zm-2.4,0V0h.8V11.627Zm-2.4,0V0h.8V11.627Zm-2.4,0V0h.8V11.627Zm-2.4,0V0h.8V11.627Zm-2.4,0V0h.8V11.627Zm-2.4,0V0h.8V11.627Zm-2.4,0V0H.8V11.627Z" transform="translate(-0.637 -0.684)" fill="rgba(255,255,255,0.03)"/>
      </g>
      <rect id="Shadow-2" data-name="Shadow" width="74.687" height="10.054" rx="5.027" fill="none" opacity="0.244"/>
    </g>
    <g id="Camera" transform="translate(93.838 0)">
      <circle id="Oval_" data-name="Oval " cx="9.097" cy="9.097" r="9.097" transform="translate(0)" fill="url(#radial-gradient-3)"/>
      <g transform="matrix(1, 0, 0, 1, -366.73, -40.22)" filter="url(#Mask-3)">
        <circle id="Mask-6" data-name="Mask" cx="4.788" cy="4.788" r="4.788" transform="translate(371.04 44.53)" opacity="0.388" fill="url(#radial-gradient)"/>
      </g>
      <g id="Camera-2" data-name="Camera" transform="translate(4.309 4.309)" clip-path="url(#clip-path-3)">
        <path id="Oval" d="M4.56,1.846c1.753,0,3.352.856,3.352-.087S7.853.607,4.393.091,0,1.386,0,2.329,2.808,1.846,4.56,1.846Z" transform="translate(-1.083 7.476) rotate(-76)" fill="#3e89cc"/>
        <ellipse id="Oval-2" data-name="Oval" cx="2.873" cy="3.591" rx="2.873" ry="3.591" transform="translate(5.745)" fill="#1c5894"/>
        <ellipse id="Oval-3" data-name="Oval" cx="4.26" cy="2.78" rx="4.26" ry="2.78" transform="translate(0.933 6.992) rotate(-16)" fill="#0a152b"/>
      </g>
    </g>
  </g>
</svg>
