<svg id="a5edc155-0b64-426f-9930-1b8275cae5c0" data-name="katman 1" xmlns="http://www.w3.org/2000/svg" viewBox="0 0 1057.26 512"><path d="M543,303.28H505.6l1.32-262C506.92,16.11,471.2,0,452.29,0c-17.51,0-35,7.7-45.52,28L245,345.3a44.85,44.85,0,0,0-5.6,21c0,24.51,16.1,37.81,36.41,37.81H403.63v74.25c0,22.41,27.31,33.62,54.63,33.62s54.63-11.21,54.63-33.62V404.13H543c16.81,0,33.62-25.21,33.62-50.42S565.42,303.28,543,303.28Zm-163.57,0L426,209.85v93.43Z" transform="translate(-239.37 0)" fill="#90d1e1"/><path d="M435,509.12c46.36-62.62,64.23-180.52,70.84-247.36l-.21,41.52H543c22.42,0,33.62,25.22,33.62,50.43S559.82,404.13,543,404.13H512.89v74.25c0,22.41-27.31,33.62-54.62,33.62a92.89,92.89,0,0,1-23.3-2.88Z" transform="translate(-239.37 0)" fill="#77b1ce"/><path d="M418.36,123.46a2.56,2.56,0,0,1-2.57-2.57v-4.48a2.57,2.57,0,0,1,5.14,0v4.48a2.56,2.56,0,0,1-2.57,2.57Z" transform="translate(-239.37 0)" fill="#4c5663"/><path d="M467.87,123.46a2.56,2.56,0,0,1-2.57-2.57v-4.48a2.57,2.57,0,0,1,5.14,0v4.48a2.56,2.56,0,0,1-2.57,2.57Z" transform="translate(-239.37 0)" fill="#4c5663"/><path d="M443.11,125.86a10.65,10.65,0,0,1-4.41-.93,10.38,10.38,0,0,1-3.63-2.66,2.3,2.3,0,0,1-.5-.87,2.4,2.4,0,0,1-.13-1,2.57,2.57,0,0,1,4.5-1.52,5.66,5.66,0,0,0,1.9,1.34,5.63,5.63,0,0,0,4.55,0,5.76,5.76,0,0,0,1.9-1.34,2.5,2.5,0,0,1,.79-.62,2.7,2.7,0,0,1,1-.27,2.58,2.58,0,0,1,1.87.63,2.65,2.65,0,0,1,.62.8,2.5,2.5,0,0,1,.26,1,2.53,2.53,0,0,1-.64,1.87,10.73,10.73,0,0,1-8.05,3.59Z" transform="translate(-239.37 0)" fill="#4c5663"/><path d="M959.37,353.71c0,25.21,16.81,50.42,33.62,50.42h30.12v74.25c0,22.41,27.31,33.62,54.63,33.62s54.63-11.21,54.63-33.62V404.13h127.85c20.31,0,36.41-13.3,36.41-37.81a44.85,44.85,0,0,0-5.6-21L1129.23,28c-10.5-20.32-28-28-45.52-28-18.91,0-54.63,16.11-54.63,41.32l1.32,262H993C970.58,303.28,959.37,328.5,959.37,353.71ZM1110,303.28V209.85l46.58,93.43Z" transform="translate(-239.37 0)" fill="#90d1e1"/><path d="M1101,509.12a92.89,92.89,0,0,1-23.3,2.88c-27.31,0-54.62-11.21-54.62-33.62V404.13H993c-16.81,0-33.62-25.21-33.62-50.42s11.2-50.43,33.62-50.43h37.41l-.21-41.52c6.61,66.84,24.48,184.74,70.84,247.36Z" transform="translate(-239.37 0)" fill="#77b1ce"/><path d="M1117.64,123.46a2.56,2.56,0,0,1-2.57-2.57v-4.48a2.57,2.57,0,0,1,5.14,0v4.48a2.56,2.56,0,0,1-2.57,2.57Z" transform="translate(-239.37 0)" fill="#4c5663"/><path d="M1068.13,123.46a2.56,2.56,0,0,1-2.57-2.57v-4.48a2.57,2.57,0,0,1,5.14,0v4.48a2.56,2.56,0,0,1-2.57,2.57Z" transform="translate(-239.37 0)" fill="#4c5663"/><path d="M1088.48,124.93a10.51,10.51,0,0,1-3.64-2.66,2.53,2.53,0,0,1-.64-1.87,2.5,2.5,0,0,1,.26-1,2.65,2.65,0,0,1,.62-.8A2.58,2.58,0,0,1,1087,118a2.7,2.7,0,0,1,1,.27,2.5,2.5,0,0,1,.79.62,5.76,5.76,0,0,0,1.9,1.34,5.63,5.63,0,0,0,4.55,0,5.66,5.66,0,0,0,1.9-1.34,2.57,2.57,0,0,1,4.5,1.52,2.4,2.4,0,0,1-.13,1,2.3,2.3,0,0,1-.5.87,10.38,10.38,0,0,1-3.63,2.66,10.92,10.92,0,0,1-8.82,0Z" transform="translate(-239.37 0)" fill="#4c5663"/><path d="M767.65,0c-95.87,0-170.2,44.47-170.2,164v184.1c0,119.49,74.33,164,170.2,164s170.9-44.46,170.9-163.95V164C938.55,44.47,863.52,0,767.65,0Zm62.53,348.05c0,47.94-23.62,69.47-62.53,69.47S705.83,396,705.83,348.05V164c0-47.93,22.92-69.47,61.82-69.47S830.18,116,830.18,164Z" transform="translate(-239.37 0)" fill="#c5acd3"/><path d="M737.55,60.08a3.72,3.72,0,0,1-3.73-3.73V49.86a3.73,3.73,0,0,1,7.46,0v6.49a3.74,3.74,0,0,1-3.73,3.73Z" transform="translate(-239.37 0)" fill="#4c5663"/><path d="M809.29,60.08a3.72,3.72,0,0,1-3.73-3.73V49.86a3.73,3.73,0,0,1,7.46,0v6.49A3.77,3.77,0,0,1,811.93,59a3.73,3.73,0,0,1-2.64,1.09Z" transform="translate(-239.37 0)" fill="#4c5663"/><path d="M773.42,63.55a15.46,15.46,0,0,1-11.66-5.19A3.71,3.71,0,0,1,761,57.1a3.77,3.77,0,0,1-.19-1.45,3.72,3.72,0,0,1,1.27-2.55,3.71,3.71,0,0,1,5.26.35,8.21,8.21,0,0,0,2.75,1.95,8.21,8.21,0,0,0,6.59,0,8.21,8.21,0,0,0,2.75-1.95,3.74,3.74,0,0,1,1.15-.9,3.65,3.65,0,0,1,1.41-.38,4,4,0,0,1,1.45.18,3.78,3.78,0,0,1,1.26.73,3.6,3.6,0,0,1,.89,1.16,3.65,3.65,0,0,1,.38,1.41,3.69,3.69,0,0,1-.19,1.44,3.83,3.83,0,0,1-.73,1.27,15.5,15.5,0,0,1-11.66,5.19Z" transform="translate(-239.37 0)" fill="#4c5663"/><path d="M830.08,353.25c-1.67,44.3-25,64.27-62.43,64.27-38,0-60.72-20.51-61.78-66.08-36.36-2.34-73.21-6-108.42-10.48v7.09c0,119.49,74.33,164,170.2,164s170.9-44.46,170.9-163.95v-13C911,345.5,873.15,351.14,830.08,353.25Z" transform="translate(-239.37 0)" fill="#ba99bb"/></svg>