<svg id="google-play-badge" xmlns="http://www.w3.org/2000/svg" xmlns:xlink="http://www.w3.org/1999/xlink" width="331.633" height="98.262" viewBox="0 0 331.633 98.262">
  <defs>
    <linearGradient id="linear-gradient" x1="0.908" y1="1.032" x2="-0.383" y2="0.36" gradientUnits="objectBoundingBox">
      <stop offset="0" stop-color="#00a0ff"/>
      <stop offset="0.007" stop-color="#00a1ff"/>
      <stop offset="0.26" stop-color="#00beff"/>
      <stop offset="0.512" stop-color="#00d2ff"/>
      <stop offset="0.76" stop-color="#00dfff"/>
      <stop offset="1" stop-color="#00e3ff"/>
    </linearGradient>
    <linearGradient id="linear-gradient-2" x1="1.077" y1="0.729" x2="-1.307" y2="0.729" gradientUnits="objectBoundingBox">
      <stop offset="0" stop-color="#ffe000"/>
      <stop offset="0.409" stop-color="#ffbd00"/>
      <stop offset="0.775" stop-color="orange"/>
      <stop offset="1" stop-color="#ff9c00"/>
    </linearGradient>
    <linearGradient id="linear-gradient-3" x1="0.864" y1="-0.023" x2="-0.499" y2="-1.789" gradientUnits="objectBoundingBox">
      <stop offset="0" stop-color="#ff3a44"/>
      <stop offset="1" stop-color="#c31162"/>
    </linearGradient>
    <linearGradient id="linear-gradient-4" x1="-0.186" y1="2.701" x2="0.423" y2="1.909" gradientUnits="objectBoundingBox">
      <stop offset="0" stop-color="#32a071"/>
      <stop offset="0.069" stop-color="#2da771"/>
      <stop offset="0.476" stop-color="#15cf74"/>
      <stop offset="0.801" stop-color="#06e775"/>
      <stop offset="1" stop-color="#00f076"/>
    </linearGradient>
  </defs>
  <path id="Path_3028" data-name="Path 3028" d="M319.35,98.262H12.283A12.163,12.163,0,0,1,0,85.979v-73.7A12.163,12.163,0,0,1,12.283,0H319.35a12.163,12.163,0,0,1,12.283,12.283v73.7A12.163,12.163,0,0,1,319.35,98.262Z"/>
  <path id="Path_3030" data-name="Path 3030" d="M56.139,15.007a6.691,6.691,0,0,1-1.72,4.913,7.711,7.711,0,0,1-10.809,0,7.223,7.223,0,0,1-2.211-5.4,7.223,7.223,0,0,1,2.211-5.4,7.223,7.223,0,0,1,5.4-2.211,6.541,6.541,0,0,1,2.948.737,5.35,5.35,0,0,1,2.211,1.72l-1.228,1.228a4.581,4.581,0,0,0-3.93-1.72,4.888,4.888,0,0,0-3.93,1.72,5.061,5.061,0,0,0-1.72,4.176,5.061,5.061,0,0,0,1.72,4.176,6.325,6.325,0,0,0,3.93,1.72,5.388,5.388,0,0,0,4.176-1.72,4.068,4.068,0,0,0,1.228-2.948h-5.4V14.024h7.124v.983Zm11.3-6.141H60.807v4.667h6.141v1.72H60.807V19.92h6.633v1.965h-8.6V7.146h8.6Zm8.107,13.02H73.581V8.865H69.4V7.146H79.722v1.72H75.546Zm11.3,0V7.146h1.965V21.885Zm10.317,0H95.2V8.865H91.022V7.146h10.072v1.72H96.918v13.02ZM120.5,19.92a7.711,7.711,0,0,1-10.809,0,7.223,7.223,0,0,1-2.211-5.4,7.223,7.223,0,0,1,2.211-5.4,7.711,7.711,0,0,1,10.809,0,7.223,7.223,0,0,1,2.211,5.4A7.223,7.223,0,0,1,120.5,19.92Zm-9.335-1.228a5.8,5.8,0,0,0,3.93,1.72,4.888,4.888,0,0,0,3.93-1.72,5.927,5.927,0,0,0,1.72-4.176,5.06,5.06,0,0,0-1.72-4.176,5.8,5.8,0,0,0-3.93-1.72,4.888,4.888,0,0,0-3.93,1.72,5.927,5.927,0,0,0-1.72,4.176A5.061,5.061,0,0,0,111.166,18.691Zm14.248,3.194V7.146h2.211l7.124,11.546V7.146h1.965V21.885h-1.965L127.133,9.848V21.885h-1.72Z" transform="translate(60.301 10.05)" fill="#fff" stroke="#fff" stroke-miterlimit="10" stroke-width="0.2"/>
  <path id="Path_3031" data-name="Path 3031" d="M107.427,28.646A10.335,10.335,0,0,0,96.863,39.209a10.485,10.485,0,0,0,10.563,10.563A10.335,10.335,0,0,0,117.99,39.209,10.191,10.191,0,0,0,107.427,28.646Zm0,16.7a6.1,6.1,0,0,1-5.9-6.387,6.1,6.1,0,0,1,5.9-6.387c3.193,0,5.9,2.457,5.9,6.387A6.1,6.1,0,0,1,107.427,45.35Zm-22.846-16.7A10.335,10.335,0,0,0,74.018,39.209,10.485,10.485,0,0,0,84.581,49.772,10.335,10.335,0,0,0,95.144,39.209,10.191,10.191,0,0,0,84.581,28.646Zm0,16.7a6.1,6.1,0,0,1-5.9-6.387,6.1,6.1,0,0,1,5.9-6.387c3.193,0,5.9,2.457,5.9,6.387A6.1,6.1,0,0,1,84.581,45.35ZM57.313,31.839v4.422H67.876a9.289,9.289,0,0,1-2.457,5.65A10.873,10.873,0,0,1,57.313,45.1,11.437,11.437,0,0,1,45.767,33.313,11.588,11.588,0,0,1,57.313,21.522a12.18,12.18,0,0,1,8.107,3.194l3.193-3.194A15.741,15.741,0,0,0,57.559,17.1,16.571,16.571,0,0,0,41.1,33.313,16.571,16.571,0,0,0,57.559,49.526c4.913,0,8.352-1.474,11.3-4.667a14.788,14.788,0,0,0,3.93-10.318,9.211,9.211,0,0,0-.246-2.7ZM168.84,35.278c-.983-2.457-3.439-6.633-8.844-6.633s-9.826,4.176-9.826,10.563a10.28,10.28,0,0,0,10.317,10.563,10.077,10.077,0,0,0,8.6-4.667l-3.439-2.457a5.988,5.988,0,0,1-5.159,2.948,5.33,5.33,0,0,1-5.159-3.194l14-5.9Zm-14.248,3.439a5.968,5.968,0,0,1,5.4-6.141,4.345,4.345,0,0,1,3.93,2.211ZM143.046,48.789h4.667V18.083h-4.667Zm-7.37-17.933a8.088,8.088,0,0,0-5.65-2.457c-5.159,0-10.072,4.667-10.072,10.563a10.172,10.172,0,0,0,10.072,10.318,7.053,7.053,0,0,0,5.4-2.457h.246V48.3c0,3.93-2.211,6.141-5.65,6.141a5.458,5.458,0,0,1-5.159-3.685l-3.93,1.72a10.134,10.134,0,0,0,9.335,6.141c5.4,0,9.826-3.194,9.826-10.809V29.137h-4.422Zm-5.4,14.494a6.1,6.1,0,0,1-5.9-6.387,6.1,6.1,0,0,1,5.9-6.387c3.193,0,5.65,2.7,5.65,6.387S133.466,45.35,130.272,45.35Zm59.94-27.268H179.158V48.789h4.667V37.244h6.387c5.159,0,10.072-3.685,10.072-9.581S195.371,18.083,190.212,18.083Zm.246,14.739h-6.633V22.259h6.633a5.4,5.4,0,0,1,5.4,5.159C195.616,30.12,193.651,32.822,190.458,32.822Zm28.25-4.422c-3.439,0-6.878,1.474-8.107,4.667l4.176,1.72a4.339,4.339,0,0,1,4.176-2.211c2.457,0,4.667,1.474,4.913,3.93v.246a9.744,9.744,0,0,0-4.667-1.228c-4.422,0-8.844,2.457-8.844,6.878,0,4.176,3.685,6.878,7.615,6.878a6.913,6.913,0,0,0,5.9-2.948h.246v2.457h4.422V37c-.491-5.4-4.667-8.6-9.826-8.6Zm-.491,16.95c-1.474,0-3.685-.737-3.685-2.7,0-2.457,2.7-3.194,4.913-3.194a9.5,9.5,0,0,1,4.176.983A5.721,5.721,0,0,1,218.216,45.35ZM244.01,29.137,238.851,42.4h-.246l-5.4-13.265h-4.913l8.107,18.67-4.667,10.317h4.667l12.528-28.987H244.01ZM202.74,48.789h4.667V18.083H202.74Z" transform="translate(59.864 24.907)" fill="#fff"/>
  <g id="Group_1469" data-name="Group 1469" transform="translate(24.565 17.557)">
    <path id="Path_3032" data-name="Path 3032" d="M10.983,7.5A4.8,4.8,0,0,0,10,10.939v54.29a4.86,4.86,0,0,0,1.228,3.439l.246.246L41.935,38.452v-.491Z" transform="translate(-10 -6.633)" fill="url(#linear-gradient)"/>
    <path id="Path_3033" data-name="Path 3033" d="M32.972,36.681,22.9,26.609v-.737L32.972,15.8l.246.246,12.037,6.878c3.439,1.965,3.439,5.159,0,7.124Z" transform="translate(8.789 5.456)" fill="url(#linear-gradient-2)"/>
    <path id="Path_3034" data-name="Path 3034" d="M51.424,30.317,41.107,20,10.4,50.707c1.228,1.228,2.948,1.228,5.159.246L51.424,30.317" transform="translate(-9.417 11.574)" fill="url(#linear-gradient-3)"/>
    <path id="Path_3035" data-name="Path 3035" d="M51.424,28.368,15.559,7.979C13.348,6.751,11.628,7,10.4,8.224L41.107,38.686,51.424,28.368Z" transform="translate(-9.417 -7.112)" fill="url(#linear-gradient-4)"/>
    <path id="Path_3036" data-name="Path 3036" d="M51.179,24.1,15.559,44.244c-1.965,1.228-3.685.983-4.913,0l-.246.246.246.246c1.228.983,2.948,1.228,4.913,0Z" transform="translate(-9.417 17.545)" opacity="0.2"/>
    <path id="Path_3037" data-name="Path 3037" d="M10.983,50.216A4.8,4.8,0,0,1,10,46.776v.246a4.86,4.86,0,0,0,1.228,3.439v-.246h-.246ZM64.044,23.194,51.761,30.072l.246.246,12.037-6.878C65.763,22.457,66.5,21.228,66.5,20,66.5,21.228,65.518,22.211,64.044,23.194Z" transform="translate(-10 11.574)" opacity="0.12"/>
    <path id="Path_3038" data-name="Path 3038" d="M16.141,8.26l47.9,27.268c1.474.983,2.457,1.965,2.457,3.194,0-1.228-.737-2.457-2.457-3.439L16.141,8.014C12.7,6.049,10,7.523,10,11.453V11.7C10,8.014,12.7,6.294,16.141,8.26Z" transform="translate(-10 -7.147)" fill="#fff" opacity="0.25"/>
  </g>
</svg>
