<svg xmlns="http://www.w3.org/2000/svg" width="1116.657" height="1055.949" viewBox="0 0 1116.657 1055.949">
  <g id="Group_3129" data-name="Group 3129" transform="translate(-192.94 -5333.783)">
    <path id="Path_276" data-name="Path 276" d="M580.674,307.947c-4.687-24.368-10.773-49.664-19.647-72.848-3.258-8.522-15.144-4.1-13.174,4.493,5.44,23.728,14.216,47.763,23.711,70.15,1.909,4.493,10.168,3.723,9.109-1.8Z" transform="translate(900.838 6445.847) rotate(-80)" fill="#ddd2f3"/>
    <path id="Path_274" data-name="Path 274" d="M633.556,225.676c3.479,12.925,7.314,25.7,11.294,38.473.954,3.074,3.865,4.041,6.5,2.247,10.388-7.055,20.777-13.994,30.609-21.8a3.7,3.7,0,0,0-.393-5.81c-11.517-7.906-27.076-19.581-41.692-19.659-3.714-.024-6.312,5.212-2.543,7.387,5.895,3.4,12.967,4.614,19.267,7.23a105.615,105.615,0,0,1,20.891,11.155c.145-2.12.284-4.24.429-6.36-10.992,6.77-21.344,14.356-31.8,21.918l6.173,1.238c-4.457-12.617-9.042-25.15-13.988-37.586-1.039-2.621-5.5-1.184-4.753,1.57Z" transform="matrix(-0.966, 0.259, -0.259, -0.966, 1875.25, 6191.456)" fill="#ffe5e6"/>
    <path id="Path_275" data-name="Path 275" d="M648.488,256.643c13.779-6.6,27.887-14.189,40.306-23.1,4.562-3.274.07-9.659-4.741-7.14-13.277,6.957-26.215,15.941-38.057,25.1-2.378,1.839-.631,6.639,2.492,5.145Z" transform="matrix(-0.966, 0.259, -0.259, -0.966, 1944.775, 5651.509)" fill="#c9d3ff"/>
    <path id="Path_158" data-name="Path 158" d="M384.332,283.668c-3.041-3.225-6.4-5.7-7.921-10.016-3.036-8.6,2.77-12.863,9.582-16.057,6.94-3.26,12.542-7.058,14.606-14.9,3.215-12.255-7.211-27.372-20.549-23.733-4.323,1.181-3.035,6.685-.082,8.386,4.129,2.387,9.654,3.746,10.349,9.429.93,7.6-6.562,9.776-11.8,12.516-5.657,2.959-9.935,7.472-11.734,13.7-3.1,10.722,3.312,25.282,15.837,24.668,1.763-.087,3-2.637,1.717-3.991Z" transform="matrix(-0.966, 0.259, -0.259, -0.966, 871.596, 6457.143)" fill="#afa9ed"/>
    <path id="Path_273" data-name="Path 273" d="M596.8,223.736c-8.874,8.518-12.244,21.778-3.788,32.013,7.965,9.63,23.376,11.674,33.328,4C650.35,241.207,625.32,207,599.4,214.083c-4.8,1.31-3.6,8.151,1.134,8.422,7.581.429,15.693.723,21.744,6.029,6.5,5.707,6.644,15.354,1.309,21.914-14.124,17.37-38.662-8.208-23.822-23.737a2.1,2.1,0,0,0-2.974-2.975Z" transform="matrix(-0.966, 0.259, -0.259, -0.966, 1932.811, 5436.986)" fill="#8aa9fc"/>
    <path id="Path_273-2" data-name="Path 273" d="M596.8,223.736c-8.874,8.518-12.244,21.778-3.788,32.013,7.965,9.63,23.376,11.674,33.328,4C650.35,241.207,625.32,207,599.4,214.083c-4.8,1.31-3.6,8.151,1.134,8.422,7.581.429,15.693.723,21.744,6.029,6.5,5.707,6.644,15.354,1.309,21.914-14.124,17.37-38.662-8.208-23.822-23.737a2.1,2.1,0,0,0-2.974-2.975Z" transform="matrix(-0.966, 0.259, -0.259, -0.966, 1045.811, 5448.986)" fill="#8aa9fc"/>
    <path id="Path_277" data-name="Path 277" d="M575.416,217.98l-.933-.835c-4.138-3.655-10.913-4.373-14.933,0a10.814,10.814,0,0,0,0,14.926l.835.94c3.694,4.177,11.311,4.053,15.031,0,3.7-4.027,4.451-11.1,0-15.031Z" transform="matrix(-0.966, 0.259, -0.259, -0.966, 1028.927, 5648.656)" fill="#f4f3fe"/>
    <path id="Path_275-2" data-name="Path 275" d="M648.488,256.643c13.779-6.6,27.887-14.189,40.306-23.1,4.562-3.274.07-9.659-4.741-7.14-13.277,6.957-26.215,15.941-38.057,25.1-2.378,1.839-.631,6.639,2.492,5.145Z" transform="matrix(-0.966, 0.259, -0.259, -0.966, 943.775, 5959.509)" fill="#c9d3ff"/>
    <path id="Path_274-2" data-name="Path 274" d="M633.556,225.676c3.479,12.925,7.314,25.7,11.294,38.473.954,3.074,3.865,4.041,6.5,2.247,10.388-7.055,20.777-13.994,30.609-21.8a3.7,3.7,0,0,0-.393-5.81c-11.517-7.906-27.076-19.581-41.692-19.659-3.714-.024-6.312,5.212-2.543,7.387,5.895,3.4,12.967,4.614,19.267,7.23a105.615,105.615,0,0,1,20.891,11.155c.145-2.12.284-4.24.429-6.36-10.992,6.77-21.344,14.356-31.8,21.918l6.173,1.238c-4.457-12.617-9.042-25.15-13.988-37.586-1.039-2.621-5.5-1.184-4.753,1.57Z" transform="matrix(-0.966, 0.259, -0.259, -0.966, 982.25, 5795.456)" fill="#ffe5e6"/>
    <g id="Group_3125" data-name="Group 3125" transform="translate(192.94 5458.56) rotate(-80)">
      <path id="Path_276-2" data-name="Path 276" d="M580.674,307.947c-4.687-24.368-10.773-49.664-19.647-72.848-3.258-8.522-15.144-4.1-13.174,4.493,5.44,23.728,14.216,47.763,23.711,70.15,1.909,4.493,10.168,3.723,9.109-1.8Z" transform="translate(-547.634 -230.509)" fill="#ddd2f3"/>
    </g>
    <path id="Path_277-2" data-name="Path 277" d="M575.416,217.98l-.933-.835c-4.138-3.655-10.913-4.373-14.933,0a10.814,10.814,0,0,0,0,14.926l.835.94c3.694,4.177,11.311,4.053,15.031,0,3.7-4.027,4.451-11.1,0-15.031Z" transform="matrix(-0.966, 0.259, -0.259, -0.966, 1028.927, 6213.656)" fill="#f4f3fe"/>
    <path id="Path_273-3" data-name="Path 273" d="M596.8,223.736c-8.874,8.518-12.244,21.778-3.788,32.013,7.965,9.63,23.376,11.674,33.328,4C650.35,241.207,625.32,207,599.4,214.083c-4.8,1.31-3.6,8.151,1.134,8.422,7.581.429,15.693.723,21.744,6.029,6.5,5.707,6.644,15.354,1.309,21.914-14.124,17.37-38.662-8.208-23.822-23.737a2.1,2.1,0,0,0-2.974-2.975Z" transform="matrix(-0.966, 0.259, -0.259, -0.966, 1686.811, 6430.986)" fill="#8aa9fc"/>
  </g>
</svg>
