<svg xmlns="http://www.w3.org/2000/svg" width="2231.108" height="947.231" viewBox="0 0 2231.108 947.231">
  <g id="unicef" transform="translate(-7890 -12663.521)" fill="#fff">
    <g id="Group_1598" data-name="Group 1598">
      <g id="_30264" data-name="30264" transform="translate(7869.787 13631.352)">
        <path id="Path_3281" data-name="Path 3281" d="M311-962.1c-17.5,8-27.9,13.4-38.3,19.8-45.9,28.5-65,60.7-63.2,106.7.4,11.3.6,12.1,3.2,14.8,5.1,5.4,12.2,5.8,27.5,1.8,28.1-7.3,52.5-32,66.3-66.9,7-17.6,14.3-45.9,13.1-50.4-.3-1.1.6-8.1,2-15.6a131.987,131.987,0,0,0,2.2-14.7C323.6-967.3,319-965.7,311-962.1Z"/>
        <path id="Path_3282" data-name="Path 3282" d="M956.3-965.8c2,7.8,4.6,26.2,4.1,28.6-1.7,8.5,10.8,49.8,20.4,67.2,14.4,26.3,35.9,45,58.6,50.9,16,4.2,22.7,3.7,28.1-1.9l3-3.1v-18.2c0-15.9-.3-19.4-2.4-27.2-7.3-28-24.7-49.6-56.7-70.5-10.7-6.9-33.6-18.8-48.3-24.9C955.8-968,955.8-968,956.3-965.8Z" transform="translate(991 -0.479)"/>
        <path id="Path_3283" data-name="Path 3283" d="M1108.8-920.7c-19.4,38.6-25.6,60.6-25.9,92.2-.2,13,.2,17.8,1.9,25.5,3.9,17.9,9.4,30.7,17.5,40.7s14.5,13.5,21,11.4c6.5-2.2,15.9-14.3,21.8-28.1,3.7-8.7,7.2-23.5,6.4-26.7-.3-1.4-.2-2.2.2-2,1,.6,1.2-3.9,1.4-23.8.2-12.1-.2-17-2-25.4-4.3-20.4-14-45.2-27.1-69.2-3.4-6.3-6.3-11.5-6.4-11.6S1113.5-930.2,1108.8-920.7Zm-25.1,103.9c-.3.8-.6.5-.6-.6-.1-1.1.2-1.7.5-1.3A2.026,2.026,0,0,1,1083.7-816.8Z" transform="translate(991 -0.479)"/>
        <path id="Path_3284" data-name="Path 3284" d="M155.2-923.8c-14.8,27.9-23.5,51.8-27.2,74.7-1.8,11.2-.7,45.3,1.9,55.2,3.3,13,10.5,27.4,18.3,37,2.4,2.9,9,6.9,11.5,6.9,9.3,0,22.5-14.5,29.3-32.1,3.8-9.8,7.1-23.6,7.5-30.9.1-3,.6-9.3,1-14,1.6-18.6-4-44.8-15.4-71.9-4-9.5-18.4-38.1-19.2-38.1C162.6-937,159.1-931,155.2-923.8Z"/>
        <path id="Path_3285" data-name="Path 3285" d="M283-833.1c-20.9,7-32.5,11.9-45.9,19.5-30.1,17.1-49.4,38.3-57,63-3.9,12.8-6.8,38.6-4.3,38.6.4,0,.9,1.1,1,2.6.3,4.2,2.2,6.5,7,8.6,4,1.8,5.7,2,14.1,1.3,5.2-.3,10.9-1.3,12.5-2.2,4-2,3-1.1-7.9,7.2-37.7,28.7-57.3,55.8-62.4,86.1-1.9,10.9-.9,47.9,1.3,52.1,2.1,4.1,6.6,6.5,12.2,6.5s9.8-1.4,20.7-6.9c21-10.4,29.7-18.7,39.1-37.1,3.5-7,7.5-15.9,8.9-19.7,3.5-9.8,7.7-29.1,8.2-37.8.2-3.9,1.1-13.7,1.9-21.7.9-8,1.6-19,1.6-24.5a85.841,85.841,0,0,1,.6-12c.3-1.1,3.7-4.2,7.6-7,17.4-12.3,32.4-32.9,44.1-60.6,7.5-17.7,10.9-28.8,10.4-33.8-.4-3.2.4-7.7,2.9-16,1.9-6.4,3.4-11.7,3.4-11.8C303-839.6,298.8-838.4,283-833.1Z"/>
        <path id="Path_3286" data-name="Path 3286" d="M980.2-829.3a60.328,60.328,0,0,1,3.2,18.3c.2,7.5.8,10,5,21,10.8,27.9,21.4,46.5,34.7,60.5,7.2,7.6,20.5,18.2,22.1,17.8.4-.2.8.5.8,1.5,0,.9.5,11.1,1.2,22.7.7,11.5,1.1,23.7,1,27s.1,5.5.6,4.9c.4-.7.8,1.6.9,5,.1,7.2,4.5,27.1,8,37.1,1.4,3.8,5.4,12.7,8.9,19.7,9.4,18.4,18.1,26.7,39.1,37.1,10.9,5.5,15.1,6.9,20.7,6.9s10.1-2.4,12.2-6.4c1.7-3.3,2.9-19.3,2.8-38.3-.2-34.8-19.7-66.3-60.1-97.4-12.1-9.3-14.3-11.2-10.2-9.1,3.1,1.7,21.7,1.8,25.6.1a10.524,10.524,0,0,0,6.5-8.6c.1-1.4.6-2.5,1-2.5,1.4,0,.9-17.4-.7-25.7-4.7-25-16.2-43.6-37.5-60.8-12.6-10.1-31.1-20.6-48.7-27.6-8.9-3.5-37.1-12.9-38.9-12.9C977.7-839,978.3-835.6,980.2-829.3Z" transform="translate(991 -0.479)"/>
        <path id="Path_3287" data-name="Path 3287" d="M208.2-831c0,1.4.2,1.9.5,1.2a5.278,5.278,0,0,0,0-2.5C208.4-832.9,208.2-832.4,208.2-831Z"/>
        <path id="Path_3288" data-name="Path 3288" d="M86.2-787.9c-8.6,29.2-11.6,47.5-11.7,69.9,0,31.7,1.7,44,8.5,60.3,8.3,19.9,27.6,40.6,38.1,40.7,6.4,0,13.6-8.3,18.7-21.8,3.6-9.2,6.5-22.7,5.7-26-.4-1.7-.2-2.2.6-1.6.8.4.9.3.5-.4-.4-.6-.2-5.8.4-11.4q4.05-38.1-26.3-84.2c-6.5-9.8-19.2-26.8-27.4-36.5l-2.8-3.3Z"/>
        <path id="Path_3289" data-name="Path 3289" d="M1178.5-787.9c-26.2,33.2-39.8,59-44.1,84.1-2.3,13.4-1.3,39.9,2,52.9,5.2,20.7,14.1,33.9,22.6,33.9,9.8-.1,28.4-19.4,37.1-38.5,4.2-9.2,7.8-23.4,8.7-34,1.2-14.7.8-48.2-.7-56.5-3.1-17.3-11.5-50.3-14-54.6C1189.8-801.3,1184.8-795.9,1178.5-787.9Z" transform="translate(991 -0.479)"/>
        <path id="Path_3290" data-name="Path 3290" d="M37.6-639.4c.5,8.2.9,18,.8,21.7-.1,4.4.2,6.4.8,5.5.6-.8.7-.2.3,1.9-.8,4.2,2.8,25.5,7,40.6,6.9,25.3,17.9,44.7,33.4,58.8,13.6,12.5,29.5,20.8,39.9,20.9,4.6,0,5.8-.4,8.2-2.9,3.4-3.3,6.4-12.7,5.4-16.7-.4-1.5-.3-2.5.2-2.1,1,.6,1.2-1.8,1.5-21.8.2-10.4-.2-15.8-1.5-21-8.4-34.7-32.2-60.9-83.1-91.5-6.6-4-12.4-7.5-12.9-7.8S37.1-648.1,37.6-639.4Z"/>
        <path id="Path_3291" data-name="Path 3291" d="M1230-646.2c-26,16.1-37.9,25-52.1,39.1-15.1,15-24.2,29.5-29.6,46.8-2.7,8.5-2.8,9.5-2.7,30.8.1,25,1.2,31.5,6.5,36.8,2.9,2.8,3.3,2.9,9.8,2.5,5.3-.4,8.5-1.4,15.2-4.7,29.7-14.9,48.6-41.6,58.5-82.9a105.086,105.086,0,0,0,2.7-15.2c.1-2.6.6-4.6,1.1-4.3.4.3.5-1.4.2-3.8-.4-2.4-.4-3.9.1-3.2.5.6.8-.8.8-3.5.1-2.6.6-10.8,1.3-18.2,2.1-23.4,2.3-28,1.5-27.9C1242.9-653.9,1236.9-650.4,1230-646.2Z" transform="translate(991 -0.479)"/>
        <path id="Path_3292" data-name="Path 3292" d="M217.4-588.7c-32.5,33.7-50.8,64.2-55.9,93.3-1.6,9-1.8,38.5-.3,36.1.4-.7.5.4.2,2.4-.7,4,.9,15.3,3.3,23.9a21.2,21.2,0,0,0,5.9,9.9c4.3,4.3,4.4,4.3,10.3,3.9,4.9-.3,7-1.2,12.7-4.9,8.6-5.6,20.8-17.5,26.4-25.8a99.55,99.55,0,0,0,7.6-14.1c4.1-9.5,8.8-28.3,8-32.2-.3-1.6-.2-2.7.2-2.4,1.6,1,2-46.1.4-56.9-1.9-13.7-7.7-43.5-8.3-43.5C227.5-599,222.8-594.4,217.4-588.7Z"/>
        <path id="Path_3293" data-name="Path 3293" d="M1051.1-594c-6.1,28.3-8.3,46.9-8,67.8.1,8.6.2,18.3.2,21.5.1,3.1.3,5.3.6,4.8s.6,1.9.7,5.3c.2,12.3,7.2,32.4,15.5,44.8,5.5,8.2,17.7,20.1,26.3,25.7,5.6,3.7,7.9,4.6,12.6,4.9,5.3.4,5.9.2,9.5-2.9,4.9-4.3,7-9.2,8.9-20.4,1.8-11,2.1-16.2,2-38-.1-15.4-.4-17.9-2.8-26-7.5-25.5-27.6-56.1-54-82.4l-10.4-10.3Z" transform="translate(991 -0.479)"/>
        <path id="Path_3294" data-name="Path 3294" d="M20.5-509.8a106.822,106.822,0,0,0,4.7,10.1c3.1,6.3,3.7,8.2,2.7,9.3-3,3.6,1.9,15.6,14.2,35.1a191.168,191.168,0,0,0,22.3,29.6c10.3,11.6,30.3,26.6,37.5,28.2,6.6,1.4,2.1,1.4-9.9-.1-17.1-2.1-51.2-3.3-50.6-1.8.3.7,2.7,4.8,5.5,9.3,5.1,8.1,5.9,9.7,4.2,8.7-.5-.4-1.2.7-1.6,2.4-.9,4.1,2.6,11.4,11,22.5,22.1,29.3,42.3,47,64.6,56.4,4.1,1.8,8.8,3.9,10.6,4.7,1.7.9,3.6,1.3,4.2,1,.6-.4,1.1-.3,1.1.1,0,.5-8.1,2.2-17.9,3.8l-18,3,7,7.7c4.3,4.8,6.5,7.8,5.5,7.8-2.2,0-3.1,4.5-1.5,8.3,2.6,6.5,25.4,26.8,43.9,39.2,22.4,15,50,23.9,68.9,22.2l6.6-.6-11,3.8c-6,2.2-14.8,5.3-19.5,7s-9.1,3.4-9.9,3.6c-.8.3,1.7,2.7,6.3,6.1,7.5,5.5,8.7,6.6,6.4,6.1-.6-.1-1.6,1-2.1,2.5-2.2,5.8,2.6,10.9,20.3,21.5,20.3,12.2,41.6,21.2,59,24.9,11.8,2.5,32.8,2.5,43.4,0,15.4-3.5,30.9-11.3,35.2-17.6,2.6-3.8,3.4-11,1.2-11-.7,0,.7-1.7,3.2-3.9l4.4-3.8-4-5.4c-16.7-22-38.1-35.8-62-40-8.2-1.4-24.4-1.7-36.9-.6-7.6.6-8.6.6-6.5-.5,4-2.1,7.2-7.7,6.8-12.1-.2-3.4.1-4.1,2.5-5.3,1.5-.8,2.7-1.9,2.7-2.5a44.467,44.467,0,0,0-3.1-7.2c-16-31.8-40.2-49.5-75.9-55.6-10.5-1.8-14.8-3.1-10.3-3.1,1.1,0,3-1.1,4.2-2.4,2.9-3.1,5.3-9.8,3.9-10.7-.6-.4-.1-1,1.1-1.4,2.7-.8,2.7-2-.9-12.6-10.1-30.2-26.2-48.4-55.3-62.5-5.1-2.5-8.1-4.2-6.7-3.8,3.3,1,14.5.6,19.1-.6a20.433,20.433,0,0,0,6.1-3c2.8-2.1,5.4-10,3.4-10.1-.6,0,0-.5,1.3-1,2.2-.9,2.3-1.3,1.8-6.7a111.647,111.647,0,0,0-8.7-30.9c-17.5-37.6-51.2-57.2-115.5-67.3-7.2-1.1-14.5-2.2-16.3-2.6C20-512.1,19.9-512,20.5-509.8ZM259.7-208.4a2.026,2.026,0,0,1-1.9.1c-.8-.3-.5-.6.6-.6C259.5-209,260.1-208.7,259.7-208.4Z"/>
        <path id="Path_3295" data-name="Path 3295" d="M1256-511.3c-1.4.2-9.5,1.5-18,2.9-46.1,7.4-74.4,19.3-94.4,39.9-14.2,14.5-24.1,35.8-27.1,58.2-.6,4.9-.5,5.4,1.7,6.2,1.2.6,1.8,1,1.2,1-2,.1.3,7.4,3.1,9.8a17.843,17.843,0,0,0,6.3,3.2c4.7,1.3,15.8,1.6,19.7.7,1.7-.4-.5.8-4.7,2.7-17.2,7.7-33,20.1-42.4,33.3a120.748,120.748,0,0,0-14.7,29.4c-3.9,12.3-4,12.8-1.6,13.5,1.2.4,1.7,1,1.1,1.4-1.7,1,1.4,8.3,4.9,11.4,1.7,1.6,2.9,3,2.7,3.1-.1.1-3.9.8-8.3,1.5-29.1,4.6-49.9,16.7-66.2,38.4-4.6,6.1-15,24.5-14.1,25.1.1.1,1.9,1.2,3.8,2.4s2.9,2.2,2.3,2.2c-1.8,0-1.6,5.4.1,8.9,1.9,3.6,4,5.3,8.5,6.8,2,.7,2.5,1.1,1.1.8-24-4.1-48.4-2.2-66.1,5-14.4,5.8-31.3,19.2-42.1,33.4l-4.9,6.5,4.3,3.8c2.4,2,3.7,3.7,3.1,3.8-2,0-1.5,6.9.7,10.5,3.8,6.2,18.8,14,33.8,17.7,6.8,1.7,11.8,2.2,22.7,2.2,15.9,0,24.9-1.5,41-7.1,21.2-7.4,56.1-27.5,59.9-34.5,2.1-4,1.6-8.5-1-9-1.1-.2,1-2.2,5.9-5.8,4.2-3,7.3-5.7,6.9-6.1-.5-.5-30.5-11.6-38.2-14.1-.8-.3,1.5-.3,5.1,0,8.6.6,24.7-2.1,35.8-6,20.3-7.1,37.3-18,60.3-38.5,15-13.3,19.4-20.5,15.2-24.7-1.4-1.5-1-2.2,5.2-8.6,3.7-3.9,6.5-7.2,6.3-7.4s-8-1.6-17.4-3c-17.7-2.8-25.3-4.6-18.5-4.4,3.3.1,5-.4,16.5-5.5,22-9.7,42.5-27.6,64-56.2,6.7-8.9,11.5-17.5,11.5-20.7a5.138,5.138,0,0,0-1.4-3.1c-1.2-1.2-.6-2.7,4.6-10.7l5.9-9.3-20.3.6c-11.2.4-25.7,1.4-32.3,2.2-11.4,1.3-16,1.4-9.6.2,3.6-.8,15.9-8.7,25.4-16.5,14.9-12.1,32.9-36,44.8-59.2,4.4-8.5,6-15.7,4-17-.9-.5-.4-2.5,2.2-7.6,1.9-3.8,4.2-8.6,5-10.7C1261-512.2,1261-512.1,1256-511.3Z" transform="translate(991 -0.479)"/>
        <path id="Path_3296" data-name="Path 3296" d="M245-468.3c-25.8,33.2-41.2,64-45.5,90.8-1.8,11.1-1.5,42.7.6,54,1.4,7.9,7.2,18.8,13.4,25.2,4.4,4.6,5.6,5.3,8.9,5.3,5.5,0,10.1-2.6,17.8-9.8,11.5-10.8,20.7-24.8,25.2-37.9,2.9-8.6,5-20.5,4.1-23.4-.5-1.6-.4-1.9.5-1.4s1.1.4.6-.4c-.4-.6-.2-6,.4-12,1.8-17-1.6-45.2-8.1-67.6-2.6-8.8-10.1-32.5-10.3-32.5C252.6-477.9,249.1-473.6,245-468.3Z"/>
        <path id="Path_3297" data-name="Path 3297" d="M1022.7-462.3c-10.7,33.7-13,46.9-13.2,74.3-.1,23.1,1.1,35.1,4.6,46,4.6,14,13.6,27.8,25.7,39.1,7.7,7.4,12.3,9.9,17.8,9.9,3.3,0,4.5-.7,8.9-5.4,7-7.4,12.2-17.5,13.4-26.2,1.9-13.5,2.1-17,1.1-15.4-.7,1-.8.4-.2-2,.4-1.9.7-11.2.6-20.5,0-17.4-.7-21.8-5.4-35.5-5.6-16.5-15.6-35.5-27.8-53-6.4-9.1-19.5-26-20.3-26C1027.6-477,1025.2-470.4,1022.7-462.3Z" transform="translate(991 -0.479)"/>
        <path id="Path_3298" data-name="Path 3298" d="M299.8-391.2c-11.1,21-20.7,46.1-25,65.3-2.1,9.4-2.3,12.7-2.2,34.4.1,22.4.3,24.6,2.7,33.8,3.2,12.1,7.9,22.1,14.6,30.9,10.9,14.4,17.8,15.9,27.4,6.2,4.4-4.4,11.3-14.5,14.9-21.9,4.1-8.2,8.2-21.6,8.2-27.2.1-2.8.4-4.6.7-4.1.4.6.6-.9.6-3.3s.1-10.7.2-18.4c.2-10.9-.2-16.3-1.8-24.3-3.9-19.8-12.7-42.1-27.9-70.5-3.5-6.4-6.4-11.7-6.5-11.7S303-397.2,299.8-391.2Z"/>
        <path id="Path_3299" data-name="Path 3299" d="M967.4-388.7c-16.6,30.9-25.3,54.3-28.4,76.4-1.8,12.5-.7,41.7,2,51.8,6.7,24.9,24.6,48.6,34.9,46,12.1-3,29.6-33.9,30.6-54,.2-2.8.9-10.3,1.6-16.7,2.8-25.8-3.5-54.5-20.1-90.8-4.4-9.7-12.8-26-13.3-26C974.6-402,971.3-396,967.4-388.7Z" transform="translate(991 -0.479)"/>
        <path id="Path_3300" data-name="Path 3300" d="M362.1-316.3c-3.6,24.1-4.6,43.6-3.2,59.8.6,7.7,1.4,15.1,1.6,16.5.5,2.2.4,2.2-.4.5-1.5-3-1.3-.9.9,11.2,2.5,14.2,5.3,22.9,10.3,32.8,6,12.1,10.6,18.2,20.4,27.5,10.1,9.6,18.3,14.9,24.1,15.7,7.6,1,13.8-7.4,18.3-24.8a100.209,100.209,0,0,0,2.4-14.2c.1-3.4.6-10.7,1-16.3,2-26.1-7.9-52.5-30.1-80.4-6.5-8.2-40.8-43-42.3-43C364.7-331,363.3-324.4,362.1-316.3Z"/>
        <path id="Path_3301" data-name="Path 3301" d="M898.5-315c-29.8,29.4-42.9,48-51,72.3-3.5,10.6-6.1,27.6-5.1,33.1.3,1.7.8,8.1,1.1,14.1.8,19.3,7.2,37.6,14.5,41.8,4.9,2.8,9.2,1.8,18.2-4.3q21.6-14.4,33.4-39.4c4.8-10.2,9.8-27.3,9.1-31.8-.2-1.5.1-2.4.6-2.1.6.4.7-.8.3-3.2-.4-2-.4-3.5.1-3.2,1.2.7,1.8-12.1,1.7-36.3,0-16.8-.6-25-2.3-37.5-1.3-8.8-2.7-16.9-3.1-18C915.4-331.2,913-329.3,898.5-315Z" transform="translate(991 -0.479)"/>
        <path id="Path_3302" data-name="Path 3302" d="M447.3-241.6c.3.6,2.3,5.7,4.6,11.4,4.4,11.1,4.6,11.6,3.1,10.7-1-.6-1.4,1.8-1,6.5,0,1.4,3.1,8.6,6.6,16,25.8,53.4,56.5,80.4,96.9,84.9,8,.9,11.8.7,17.3-1.1,3.8-1.2,7.2-5.9,7.2-10.1q0-2.7,1.5-2.7c1.2,0,1.5-.8,1.1-3.3-.3-1.7-.8-5.9-1.1-9.2-4.8-45.5-34.5-75.8-91-93C476.4-236.4,446.8-243,447.3-241.6Z"/>
        <path id="Path_3303" data-name="Path 3303" d="M827.5-241.5c-2.7.7-11.3,2.7-19,4.5-68.6,16-103,45.3-111,94.5-1.7,10.5-1.9,16.5-.5,16.5.6,0,1,1.1,1,2.5a11.566,11.566,0,0,0,6.8,10.2c4.7,1.9,17.3,1.9,26.8-.1,36-7.6,64-34.2,87.8-83.6,5.9-12.4,7-15.9,6.7-21.5-.1-1.7-.3-1.7-1.1-.5-1.9,3-.9-.2,3.6-11.5,2.6-6.4,4.5-11.7,4.3-11.9S830.3-242.1,827.5-241.5Z" transform="translate(991 -0.479)"/>
        <path id="Path_3304" data-name="Path 3304" d="M406-149.5c-.8.2-4.9.9-9,1.5-14.7,2.4-33.8,10.1-52,21-13.2,7.9-40.6,27.3-40.4,28.6.1.5,3,2,6.5,3.3,3.5,1.4,5.8,2.6,5.2,2.8-1.8.6-2.7,6.7-1.4,9.2,3.4,6.3,37.1,15.7,65.8,18.3,34.7,3.2,64.3-6.4,85.5-27.7,7.8-7.9,10.4-13.7,7.9-18.4-.7-1.3,0-2.9,3-6.8,2.1-2.9,3.9-5.5,3.9-6,0-1.1-13-10.2-20-14-13.7-7.6-31.5-12.4-45.5-12.2C411.1-149.8,406.8-149.6,406-149.5Z"/>
        <path id="Path_3305" data-name="Path 3305" d="M846.8-148a113.2,113.2,0,0,0-42.5,20.2l-5.3,4,3.9,5.6c3.1,4.3,3.8,5.9,3,7.3-2.5,4.7,0,10.5,7.9,18.4C838.3-67.9,872.3-59.4,916.3-67c23.8-4,46.3-11.5,48.8-16.2,1.2-2.3.4-8.5-1.3-9-1-.4.6-1.1,10.6-4.8l2.9-1.1-10.9-8c-41.2-30.3-68.5-42.3-98.4-43.4C858-149.9,853.8-149.6,846.8-148Z" transform="translate(991 -0.479)"/>
        <path id="Path_3307" data-name="Path 3307" d="M522-106.1c-20.7,4.6-40.7,14.4-62,30.4C448.3-66.8,426-48,426-47c0,.4,2.9,1.5,6.5,2.5,5.7,1.5,6.3,1.9,5,3.2-2.3,2.2-1.8,7.1.9,9.8,3,3,9.5,4.9,27.6,8.2,12.6,2.3,17.3,2.6,36,2.7,18.7,0,22.7-.2,30.7-2.1,19.2-4.6,34.3-12.5,47.5-25.1C590.4-57.5,594-63.2,594-69.4c0-3.3-.3-4.5-1.2-4-1.2.8-1.2.7,3.9-7.3,1.8-2.9,3.3-5.6,3.3-6.1,0-2.7-23.8-14.7-36-18.2C553.1-108.1,533.4-108.6,522-106.1Z"/>
        <path id="Path_3308" data-name="Path 3308" d="M722.5-106.3a119.52,119.52,0,0,0-31.6,12.2c-12.4,7.1-11.8,6-7.1,13.6,2.3,3.6,3.7,6.5,3.2,6.5-.6,0-1,2.1-1,4.7,0,6,3.5,11.5,13.2,21,16,15.5,34.7,24.1,59.6,27.4,17.9,2.4,56.5-1,75.1-6.6,8.6-2.6,12.1-7.9,9.1-13.5-.9-1.6-.4-2,4.4-3.4a45.764,45.764,0,0,1,6.5-1.6c2.3,0,.5-1.9-11.9-12.4-22-18.5-35.3-27.9-51.5-36.1C766.9-106.5,742.9-110.7,722.5-106.3Z" transform="translate(991 -0.479)"/>
      </g>
      <g id="UNICEF_Logo" transform="translate(8392.633 12965)">
        <path id="Path_3309" data-name="Path 3309" d="M216.4,0A116.1,116.1,0,1,0,332.5,116.1,116.081,116.081,0,0,0,216.4,0m89.885,51.5c-5.618,3.745-12.172,7.49-18.726,11.236A106.317,106.317,0,0,0,273.516,41.2a158.844,158.844,0,0,0,13.108-9.363c8.427,4.682,14.981,12.172,19.662,19.662M257.6,13.108a105.2,105.2,0,0,1,26.216,14.981c-3.745,3.745-8.427,6.554-13.108,9.363-5.618-6.554-12.172-12.172-18.726-17.79a40.723,40.723,0,0,1,5.618-6.554m9.363,26.216c-6.554,3.745-13.108,5.618-19.662,8.427-2.809-6.554-5.618-13.108-9.363-18.726,3.745-1.873,7.49-3.745,10.3-6.554a105.174,105.174,0,0,1,18.726,16.853M252.917,11.236a24.825,24.825,0,0,0-4.682,5.618c-6.554-3.745-12.172-7.49-19.662-10.3a70.33,70.33,0,0,1,24.344,4.682m-8.427,8.427a37.952,37.952,0,0,1-8.427,4.682c-3.745-5.618-7.49-10.3-11.236-15.917A105.345,105.345,0,0,1,244.49,19.662m-26.216-10.3c4.682,4.682,8.427,10.3,12.172,16.853a47.437,47.437,0,0,1-12.172,1.873Zm0,23.408a42.407,42.407,0,0,0,14.981-2.809c3.745,5.618,6.554,12.172,9.363,18.726-7.49,1.873-15.917,2.809-24.344,3.745ZM213.593,9.363V28.089c-3.745,0-7.49-.936-12.172-1.873A189.872,189.872,0,0,0,213.593,9.363M197.675,24.344c-2.809-.936-6.554-2.809-8.427-4.682a198.118,198.118,0,0,1,19.662-10.3,57.12,57.12,0,0,0-11.235,14.981m6.554-18.726a198.126,198.126,0,0,0-19.662,10.3,24.825,24.825,0,0,1-4.682-5.618,186.967,186.967,0,0,1,24.344-4.682m79.586,198.5c-14.981-8.427-15.917-20.6-14.981-24.344.936-4.682,3.745-2.809,5.618-2.809,10.3,0,20.6-2.809,33.707-16.853,14.981-14.981,19.662-48.688-3.745-70.223C280.07,66.477,253.853,70.223,237,91.758c-3.745,4.682-12.172,7.49-18.726,7.49-11.236,0-3.745,8.427-3.745,10.3a2.99,2.99,0,0,1-2.809,2.809c-3.745-.936-1.873,4.682-1.873,5.618s-1.873,2.809-1.873,2.809c-4.682,0-3.745,3.745-2.809,5.618a3.738,3.738,0,0,1-1.873,3.745c-1.873.936-2.809,4.682-2.809,7.49,0,4.682,4.682,8.427,12.172,14.045s8.427,11.236,8.427,14.981a72.276,72.276,0,0,0,1.873,14.045c1.873,4.682,1.873,14.045-8.427,14.045-13.108.936-35.579,10.3-37.452,11.236-7.49,2.809-16.853,3.745-24.344,1.873A99.165,99.165,0,0,1,141.5,198.5c-1.873-4.682.936-10.3,3.745-14.045,4.682,4.682,10.3,3.745,14.045,3.745s20.6-2.809,23.408-3.745,3.745-.936,4.681,0c6.554,2.809,15.917,2.809,19.662-9.363,3.745-13.108-4.682-9.363-6.554-8.427-.936.936-2.809,0-1.873-.936,1.873-2.809-.936-2.809-1.873-2.809-3.745,0-8.427,3.745-9.363,4.682a7.078,7.078,0,0,1-3.745.936c-4.682-2.809-18.726.936-23.408-6.554,0-1.873-3.745-32.771-5.618-38.388,0-.936-.936-2.809.936-4.682,3.745-5.618,13.108,0,18.726,0,6.554,0,7.49-2.809,9.363-4.682s2.809-.936,3.745-1.873,0-1.873,0-2.809.936,0,1.873-.936,0-2.809,0-3.745c1.873-2.809,5.618-.936,3.745-6.554a10.421,10.421,0,0,1,2.809-9.363c2.809-3.745,14.981-20.6-5.618-38.388-19.662-16.853-40.261-14.981-53.369-.936s-6.554,34.643-5.618,40.261-2.809,10.3-7.49,12.172a121.622,121.622,0,0,0-17.79,12.172c.936-44.942,28.089-84.267,69.286-100.184,1.873,1.873,3.745,4.682,5.618,6.554-4.682,3.745-14.981,12.172-14.981,12.172a7.247,7.247,0,0,1,2.809.936,9.431,9.431,0,0,1,2.809.936s8.427-7.49,13.108-10.3c2.809,2.809,6.554,4.682,10.3,6.554-1.873,3.745-7.49,13.108-7.49,13.108a3.269,3.269,0,0,0,1.873.936,2.9,2.9,0,0,0,1.873.936s5.618-10.3,7.49-14.045a37.57,37.57,0,0,0,14.045,2.809V53.369c-2.809,0-9.363,0-12.172-.936h-1.873l.936,1.873c.936.936.936,1.873,1.873,2.809h11.235V91.758h4.682V83.331c7.49,0,13.108-.936,19.662-1.873h0l6.554-5.618h-3.745c-7.49.936-14.044,1.873-19.662,1.873h-2.809V56.178c8.427,0,17.79-.936,26.216-3.745L250.108,72.1l4.682-1.873L248.236,50.56c7.49-1.873,14.045-5.618,20.6-8.427a106.312,106.312,0,0,1,14.044,21.535,88.166,88.166,0,0,1-9.363,3.745c4.682.936,8.427,1.873,8.427,1.873a9.431,9.431,0,0,1,2.809-.936,9.431,9.431,0,0,0,.936,2.809l6.554,2.809-.936-1.873s-1.873-4.682-2.809-5.618a105.349,105.349,0,0,0,19.662-11.236c12.172,17.79,17.79,39.325,17.79,60.86,1.873,35.579-15.917,67.414-42.134,88.012" transform="translate(838.81)"/>
        <path id="Path_3310" data-name="Path 3310" d="M118.729,4.136l-1.873,1.873C110.3,11.627,94.385,27.544,97.194,45.334v.936l.936,3.745L100,48.142c9.363-8.427,16.853-23.408,19.662-40.261L120.6,3.2Z" transform="translate(810.082 26.762)"/>
        <path id="Path_3311" data-name="Path 3311" d="M100.689,7.336l-.936,1.873a94.187,94.187,0,0,0-3.745,16.853c-1.873,11.236-.936,28.089,8.427,40.261l.936,1.873.936,1.873,1.873-7.49c1.873-13.108-.936-40.261-5.618-52.433L100.689,6.4Z" transform="translate(796.287 53.523)"/>
        <path id="Path_3312" data-name="Path 3312" d="M94.8,14.009v1.873c-.936,11.236,0,40.261,23.408,56.178l2.809,1.873V70.187c0-11.236-13.108-44.006-22.471-55.242L95.739,11.2Z" transform="translate(790.939 93.666)"/>
        <path id="Path_3313" data-name="Path 3313" d="M95,18.673v1.873c3.745,16.853,18.726,43.07,43.07,51.5l3.745.936-.936-3.745c-4.682-12.172-28.089-41.2-43.07-50.56L95,16.8Z" transform="translate(794.486 140.499)"/>
        <path id="Path_3314" data-name="Path 3314" d="M126.225,6.836l-2.809.936C105.627,19.008,97.2,32.116,97.2,48.97v3.745l2.809-1.873c9.363-8.427,22.471-29.025,25.28-40.261l.936-4.682Z" transform="translate(812.885 49.342)"/>
        <path id="Path_3315" data-name="Path 3315" d="M116.7,10.636l-.936,1.873C111.082,17.19,96.1,33.108,97.038,52.77a33.267,33.267,0,0,0,1.873,9.363l.936,2.809,1.873-2.809c7.49-10.3,16.853-36.516,15.917-48.688V9.7Z" transform="translate(811.175 81.121)"/>
        <path id="Path_3316" data-name="Path 3316" d="M110.072,14.336l-.936,1.873Q97.9,33.062,97.9,49.916c0,7.49,2.809,14.981,7.49,22.471l1.873,2.809.936-2.809c2.809-6.554,5.618-26.216,5.618-42.134a43.405,43.405,0,0,0-1.873-13.108l-.936-3.745Z" transform="translate(818.739 112.064)"/>
        <path id="Path_3317" data-name="Path 3317" d="M103.668,19.073l-.936,1.873c-1.873,7.49-3.745,14.045-2.809,21.535,0,14.981,7.49,27.153,20.6,35.579l1.873.936.936-2.809V73.378c0-12.172-9.363-44.006-16.853-53.369L104.6,17.2Z" transform="translate(833.57 143.844)"/>
        <path id="Path_3318" data-name="Path 3318" d="M98.236,23.436l.936,1.873c9.363,15.917,26.216,37.452,57.114,31.834H159.1l-1.873-1.873c-5.618-8.427-43.07-29.962-56.178-31.834L97.3,22.5Z" transform="translate(813.721 188.168)"/>
        <path id="Path_3319" data-name="Path 3319" d="M106.482,32.66h0L101.8,33.6l4.682,1.873c19.662,8.427,44.006,10.3,58.987,5.618,5.618-1.873,8.427-4.682,12.172-8.427,25.28,2.809,48.688,23.408,62.732,40.261l.936.936h.936a20.425,20.425,0,0,0,4.682-3.745l.936-.936-.936-.936c-14.045-18.726-36.516-29.962-37.452-30.9-20.6-9.363-56.178-16.853-102.993-4.682" transform="translate(851.355 220.141)"/>
        <path id="Path_3320" data-name="Path 3320" d="M103.236,22.236v1.873c2.809,18.726,10.3,43.07,42.134,40.261h1.873l-.936-1.873c-1.873-8.427-30.9-32.771-41.2-39.325L102.3,21.3Z" transform="translate(855.536 178.132)"/>
        <path id="Path_3321" data-name="Path 3321" d="M126,3.1l.936,4.682c2.809,16.853,10.3,31.834,19.662,40.261l1.873,1.873.936-3.745v-.936c2.809-17.79-13.108-33.707-19.662-39.325l-1.873-1.873Z" transform="translate(1053.74 25.925)"/>
        <path id="Path_3322" data-name="Path 3322" d="M136.4,6.3l-1.873,3.745c-4.682,12.172-6.554,39.325-5.618,52.433l1.873,7.49.936-.936.936-1.873c10.3-12.172,10.3-28.089,8.427-40.261a77.163,77.163,0,0,0-3.745-16.853L136.4,8.173Z" transform="translate(1076.111 52.687)"/>
        <path id="Path_3323" data-name="Path 3323" d="M153.38,11.3l-2.809,3.745C141.208,27.217,128.1,59.051,128.1,70.287v3.745l2.809-1.873c23.408-14.981,24.344-44.006,23.408-56.178V14.109Z" transform="translate(1071.302 94.502)"/>
        <path id="Path_3324" data-name="Path 3324" d="M173.051,16.8l-3.745,1.873c-14.981,9.363-38.388,38.388-43.07,50.56l-.936,3.745,3.745-.936c24.344-7.49,40.261-34.643,43.07-51.5V18.673Z" transform="translate(1047.885 140.499)"/>
        <path id="Path_3325" data-name="Path 3325" d="M125.1,5.8l.936,4.682c3.745,12.172,14.981,32.771,25.28,41.2l2.809,1.873V49.806c.936-16.853-7.49-29.962-25.28-41.2l-1.873-.936Z" transform="translate(1046.213 48.505)"/>
        <path id="Path_3326" data-name="Path 3326" d="M126.253,9.7v3.745c-.936,12.172,9.363,39.325,15.917,48.688l1.873,2.809.936-2.809c.936-3.745,1.873-6.554,1.873-9.363.936-19.662-14.044-35.579-18.726-40.261l-.936-.936Z" transform="translate(1055.359 81.121)"/>
        <path id="Path_3327" data-name="Path 3327" d="M128.609,13.3l-.936,3.745A43.405,43.405,0,0,0,125.8,30.153c0,15.917,1.873,35.579,5.618,42.134l.936,2.809,1.873-2.809a38.1,38.1,0,0,0,7.49-22.471c0-10.3-3.745-22.471-11.236-33.707l-.936-1.873Z" transform="translate(1052.067 111.228)"/>
        <path id="Path_3328" data-name="Path 3328" d="M141.926,17.2l-1.873,2.809c-7.49,9.363-16.854,41.2-16.854,53.369v2.809L124.136,79l1.873-.936c13.108-8.427,19.662-20.6,20.6-35.579A90.748,90.748,0,0,0,143.8,20.945l-.936-1.873Z" transform="translate(1030.323 143.844)"/>
        <path id="Path_3329" data-name="Path 3329" d="M183.3,22.4l-3.745.936c-13.108,1.873-50.56,23.408-56.178,31.834L121.5,57.043h2.809c30.9,5.618,47.751-15.917,57.114-31.834l.936-1.873Z" transform="translate(1016.106 187.331)"/>
        <path id="Path_3330" data-name="Path 3330" d="M146.488,37.342c-.936,0-23.407,12.172-37.452,30.9l-.936.936.936.936c.936.936,3.745,2.809,4.682,3.745h.936l.936-.936c14.045-16.853,37.452-38.388,62.732-40.261a35.63,35.63,0,0,0,12.172,8.427c14.045,4.682,39.325,2.809,58.987-5.618l4.682-1.873-4.682-.936c-47.751-12.172-83.331-4.681-102.993,4.682" transform="translate(904.042 220.141)"/>
        <path id="Path_3331" data-name="Path 3331" d="M163.143,21.2l-2.809,1.873c-10.3,6.554-38.388,30.9-41.2,39.325L118.2,64.27h1.873c30.9,2.809,38.388-21.535,42.134-40.261V22.136Z" transform="translate(988.508 177.296)"/>
        <path id="Path_3332" data-name="Path 3332" d="M38.6,1.2H77.925V36.779H38.6Zm3.745,76.777H75.116V252.129H42.345Z" transform="translate(322.812 10.036)"/>
        <path id="Path_3333" data-name="Path 3333" d="M117.038,9.4h32.771V183.552H117.974v-25.28h-.936c-13.108,21.535-35.579,30.9-59.923,30.9C20.6,189.17,0,161.081,0,126.438V9.4H32.771V112.393c0,29.962,6.554,52.433,38.388,52.433,13.108,0,31.834-6.554,38.388-25.28,6.554-15.917,6.554-36.516,6.554-41.2V9.4Z" transform="translate(0 78.612)"/>
        <path id="Path_3334" data-name="Path 3334" d="M52.271,39.7h0C64.442,18.163,87.85,8.8,105.64,8.8c12.172,0,65.541,2.809,65.541,58.987V187.634H138.41V78.086c0-29.025-12.172-44.006-40.261-44.006A45.423,45.423,0,0,0,66.315,47.188C61.634,51.87,52.271,59.36,52.271,94V188.57H19.5V14.418H52.271Z" transform="translate(163.079 73.595)"/>
        <path id="Path_3335" data-name="Path 3335" d="M159.229,69.66c-1.873-21.535-12.172-36.516-35.579-36.516-30.9,0-43.07,27.153-43.07,67.414s12.172,67.414,43.07,67.414c21.535,0,34.643-14.045,36.516-39.325h32.771c-2.809,39.325-31.834,62.732-70.223,62.732C67.471,191.379,45,152.054,45,101.494S70.28,8.8,125.522,8.8c36.516,0,63.668,23.408,65.541,60.86H159.229Z" transform="translate(376.336 73.595)"/>
        <path id="Path_3336" data-name="Path 3336" d="M96.943,106.275c-2.809,29.962,10.3,61.8,43.07,61.8,25.28,0,38.388-10.3,42.134-35.579H216.79c-5.618,39.325-35.579,58.987-76.777,58.987-55.242,0-77.713-39.325-77.713-89.885S87.58,8.9,142.822,8.9c51.5.936,75.84,33.707,75.84,81.458v15.917H96.943ZM184.956,83.8c.936-29.025-12.172-51.5-44.006-51.5-27.153,0-43.07,23.408-43.07,51.5Z" transform="translate(521.016 74.431)"/>
        <path id="Path_3337" data-name="Path 3337" d="M109.762,257.783V107.975H79.8V85.5h29.962V48.051C110.7,10.6,139.723.3,164.067.3c7.49,0,15.917,1.873,23.408,3.745V31.2c-5.618,0-11.236-.936-16.853-.936-18.726,0-29.025,4.682-28.089,23.408V85.5h40.261v22.471H142.532V257.783Z" transform="translate(667.368 2.509)"/>
      </g>
      <path id="Path_3338" data-name="Path 3338" d="M-360.375,0V-41.4h41.25V-60.45h-41.4V-86.7h46.5v-19.65h-67.2V0Zm71.7-45.3c.45-6.75,6.15-14.55,16.5-14.55,11.4,0,16.2,7.2,16.5,14.55Zm34.95,19.2c-2.4,6.6-7.5,11.25-16.8,11.25-9.9,0-18.15-7.05-18.6-16.8h52.8c0-.3.3-3.3.3-6.15,0-23.7-13.65-38.25-36.45-38.25-18.9,0-36.3,15.3-36.3,38.85,0,24.9,17.85,39.45,38.1,39.45,18.15,0,29.85-10.65,33.6-23.4Zm28.95,6c0,11.55,9.6,22.2,25.35,22.2,10.95,0,18-5.1,21.75-10.95a49.98,49.98,0,0,0,.75,8.85h18.3a82.641,82.641,0,0,1-.9-11.7V-48c0-14.85-8.7-28.05-32.1-28.05-19.8,0-30.45,12.75-31.65,24.3l17.7,3.75c.6-6.45,5.4-12,14.1-12,8.4,0,12.45,4.35,12.45,9.6,0,2.55-1.35,4.65-5.55,5.25l-18.15,2.7C-215.025-40.65-224.775-33.3-224.775-20.1Zm29.55,7.35c-6.45,0-9.6-4.2-9.6-8.55,0-5.7,4.05-8.55,9.15-9.3l16.65-2.55v3.3C-179.025-16.8-186.825-12.75-195.225-12.75Zm79.95-83.1h-18V-85.5c0,6.6-3.6,11.7-11.4,11.7h-3.75v17.7h13.35v34.35c0,14.25,9,22.8,23.4,22.8,5.85,0,9.45-1.05,11.25-1.8v-16.5a28.953,28.953,0,0,1-6.15.6c-5.7,0-8.7-2.1-8.7-8.55V-56.1h14.85V-73.8h-14.85ZM-34.725,0h19.05a121.384,121.384,0,0,1-.75-13.35V-73.8h-19.95v42.9c0,8.55-5.1,14.55-13.95,14.55-9.3,0-13.5-6.6-13.5-14.85V-73.8h-19.95v46.65c0,16.05,10.2,29.1,28.05,29.1,7.8,0,16.35-3,20.4-9.9A50.515,50.515,0,0,0-34.725,0Zm84.6-74.1a45.426,45.426,0,0,0-4.65-.3c-6.3,0-16.5,1.8-21,11.55V-73.8H4.875V0h19.95V-33.75c0-15.9,8.85-20.85,19.05-20.85a30.039,30.039,0,0,1,6,.6Zm27.9,28.8c.45-6.75,6.15-14.55,16.5-14.55,11.4,0,16.2,7.2,16.5,14.55Zm34.95,19.2c-2.4,6.6-7.5,11.25-16.8,11.25-9.9,0-18.15-7.05-18.6-16.8h52.8c0-.3.3-3.3.3-6.15,0-23.7-13.65-38.25-36.45-38.25-18.9,0-36.3,15.3-36.3,38.85,0,24.9,17.85,39.45,38.1,39.45,18.15,0,29.85-10.65,33.6-23.4Zm103.8-82.5h-19.65v42.15c-2.1-3.9-8.1-9.15-20.85-9.15-20.85,0-35.4,16.95-35.4,38.55,0,22.35,15,38.85,36,38.85,9.9,0,17.4-4.5,20.7-10.35a50.953,50.953,0,0,0,.75,8.55h19.05c-.3-3-.6-8.4-.6-13.35Zm-55.8,71.55c0-13.2,8.1-20.7,18.3-20.7s18.15,7.35,18.15,20.55c0,13.35-7.95,21.15-18.15,21.15C168.525-16.05,160.725-23.85,160.725-37.05ZM295.125,0V-73.8h-19.95V0Zm-22.35-97.95a12.325,12.325,0,0,0,12.3,12.15,12.228,12.228,0,0,0,12.3-12.15,12.293,12.293,0,0,0-12.3-12.45A12.388,12.388,0,0,0,272.775-97.95Zm63.6,55.5c0-8.55,5.1-15.3,13.8-15.3,9.6,0,13.65,6.45,13.65,14.7V0h19.95V-46.5c0-16.2-8.4-29.25-26.7-29.25-7.95,0-16.8,3.45-21.3,11.1V-73.8h-19.35V0h19.95ZM-304.668,501h15.6l-28.08-73.736h-16.64L-362.076,501h15.184l6.136-16.848H-310.8Zm-21.112-57.824,10.192,27.872h-20.384Zm58.76,77.584V496.008c2.5,3.432,7.7,6.24,14.768,6.24,14.456,0,24.128-11.44,24.128-26.936,0-15.184-8.632-26.624-23.608-26.624-7.7,0-13.416,3.432-15.7,7.384v-6.24h-13.416V520.76Zm25.272-45.344c0,9.152-5.616,14.456-12.688,14.456s-12.792-5.408-12.792-14.456,5.72-14.352,12.792-14.352S-241.748,466.368-241.748,475.416Zm38.376,45.344V496.008c2.5,3.432,7.7,6.24,14.768,6.24,14.456,0,24.128-11.44,24.128-26.936,0-15.184-8.632-26.624-23.608-26.624-7.7,0-13.416,3.432-15.7,7.384v-6.24H-217.2V520.76Zm25.272-45.344c0,9.152-5.616,14.456-12.688,14.456s-12.792-5.408-12.792-14.456,5.72-14.352,12.792-14.352S-178.1,466.368-178.1,475.416Zm84.656,27.144c20.7,0,31.3-13.728,34.112-25.064l-13.416-4.056c-1.976,6.864-8.112,15.08-20.7,15.08-11.856,0-22.88-8.632-22.88-24.336,0-16.744,11.648-24.648,22.672-24.648,12.792,0,18.512,7.8,20.28,14.872l13.52-4.264c-2.912-11.96-13.416-24.44-33.8-24.44-19.76,0-37.544,14.976-37.544,38.48S-114.036,502.56-93.444,502.56Zm40.456-15.5c0,8.008,6.656,15.392,17.576,15.392,7.592,0,12.48-3.536,15.08-7.592a34.652,34.652,0,0,0,.52,6.136H-7.124a57.3,57.3,0,0,1-.624-8.112V467.72c0-10.3-6.032-19.448-22.256-19.448-13.728,0-21.112,8.84-21.944,16.848l12.272,2.6c.416-4.472,3.744-8.32,9.776-8.32,5.824,0,8.632,3.016,8.632,6.656,0,1.768-.936,3.224-3.848,3.64L-37.7,471.568C-46.228,472.816-52.988,477.912-52.988,487.064Zm20.488,5.1c-4.472,0-6.656-2.912-6.656-5.928,0-3.952,2.808-5.928,6.344-6.448l11.544-1.768V480.3C-21.268,489.352-26.676,492.16-32.5,492.16Zm55.432-57.616H10.452v7.176c0,4.576-2.5,8.112-7.9,8.112h-2.6V462.1H9.2V485.92c0,9.88,6.24,15.808,16.224,15.808a20.518,20.518,0,0,0,7.8-1.248V489.04a20.075,20.075,0,0,1-4.264.416c-3.952,0-6.032-1.456-6.032-5.928V462.1h10.3V449.832h-10.3Zm19.24,52.52c0,8.008,6.656,15.392,17.576,15.392,7.592,0,12.48-3.536,15.08-7.592a34.653,34.653,0,0,0,.52,6.136H88.036a57.3,57.3,0,0,1-.624-8.112V467.72c0-10.3-6.032-19.448-22.256-19.448-13.728,0-21.112,8.84-21.944,16.848l12.272,2.6c.416-4.472,3.744-8.32,9.776-8.32,5.824,0,8.632,3.016,8.632,6.656,0,1.768-.936,3.224-3.848,3.64L57.46,471.568C48.932,472.816,42.172,477.912,42.172,487.064Zm20.488,5.1c-4.472,0-6.656-2.912-6.656-5.928,0-3.952,2.808-5.928,6.344-6.448l11.544-1.768V480.3C73.892,489.352,68.484,492.16,62.66,492.16ZM115.18,501V425.7H101.348V501Zm37.752-11.024c-6.76,0-13-4.992-13-14.56,0-9.672,6.24-14.56,13-14.56s13,4.888,13,14.56S159.692,489.976,152.932,489.976Zm0-41.7c-15.288,0-26.832,11.336-26.832,27.144,0,15.7,11.544,27.144,26.832,27.144s26.832-11.44,26.832-27.144C179.764,459.608,168.22,448.272,152.932,448.272Zm34.112,55.536c1.456,9.776,10.816,18.512,24.856,18.512,19.24,0,26.832-12.792,26.832-26.832V449.832H225.42v6.032c-1.768-3.432-6.448-6.968-14.56-6.968-14.04,0-23.816,11.44-23.816,24.96,0,14.352,10.192,24.856,23.816,24.856,7.384,0,12.168-3.224,14.248-6.552V495.9c0,9.88-4.888,14.248-13.624,14.248-6.552,0-11.024-4.056-11.96-9.672Zm26.208-16.952c-7.176,0-12.272-4.992-12.272-13,0-7.9,5.408-12.9,12.272-12.9,6.656,0,12.064,4.992,12.064,12.9S220.324,486.856,213.252,486.856ZM285.74,501h13.208a84.157,84.157,0,0,1-.52-9.256V449.832H284.6v29.744c0,5.928-3.536,10.088-9.672,10.088-6.448,0-9.36-4.576-9.36-10.3V449.832H251.732v32.344c0,11.128,7.072,20.176,19.448,20.176,5.408,0,11.336-2.08,14.144-6.864A35.022,35.022,0,0,0,285.74,501Zm37.336-31.408a11.071,11.071,0,0,1,11.44-10.088c7.9,0,11.232,4.992,11.44,10.088ZM347.308,482.9c-1.664,4.576-5.2,7.8-11.648,7.8-6.864,0-12.584-4.888-12.9-11.648h36.608c0-.208.208-2.288.208-4.264,0-16.432-9.464-26.52-25.272-26.52-13.1,0-25.168,10.608-25.168,26.936,0,17.264,12.376,27.352,26.416,27.352,12.584,0,20.7-7.384,23.3-16.224Z" transform="translate(8974 12903)"/>
    </g>
  </g>
</svg>
